<?xml version="1.0" encoding="UTF-8" standalone="no"?><!DOCTYPE svg PUBLIC "-//W3C//DTD SVG 1.1//EN" "http://www.w3.org/Graphics/SVG/1.1/DTD/svg11.dtd"><!-- Generated by graphviz version 2.40.1 (20161225.0304)
 --><!-- Title: G Pages: 1 --><svg xmlns="http://www.w3.org/2000/svg" xmlns:xlink="http://www.w3.org/1999/xlink" width="170pt" height="188pt" viewBox="0.00 0.00 170.00 188.00">
<g id="graph0" class="graph" transform="scale(1 1) rotate(0) translate(4 184)">
<title>G</title>
<polygon fill="#ffffff" stroke="transparent" points="-4,4 -4,-184 166,-184 166,4 -4,4"/>
<!-- 1 -->
<g id="node1" class="node">
<title>1</title>
<ellipse fill="none" stroke="#000000" cx="72" cy="-162" rx="27" ry="18"/>
<text text-anchor="middle" x="72" y="-157.8" font-family="Times,serif" font-size="14.00" fill="#000000">1</text>
</g>
<!-- 1&#45;&gt;1 -->
<g id="edge1" class="edge">
<title>1-&gt;1</title>
<path fill="none" stroke="#000000" d="M91.895,-174.4321C104.688,-177.6753 117,-173.5313 117,-162 117,-150.4688 104.688,-146.3247 91.895,-149.5679"/>
</g>
<!-- 5 -->
<g id="node2" class="node">
<title>5</title>
<ellipse fill="none" stroke="#000000" cx="27" cy="-90" rx="27" ry="18"/>
<text text-anchor="middle" x="27" y="-85.8" font-family="Times,serif" font-size="14.00" fill="#000000">5</text>
</g>
<!-- 1&#45;&gt;5 -->
<g id="edge2" class="edge">
<title>1-&gt;5</title>
<path fill="none" stroke="#00ff00" d="M61.563,-145.3008C54.397,-133.8352 44.9132,-118.6612 37.6929,-107.1086"/>
</g>
<!-- 6 -->
<g id="node3" class="node">
<title>6</title>
<ellipse fill="none" stroke="#000000" cx="117" cy="-90" rx="27" ry="18"/>
<text text-anchor="middle" x="117" y="-85.8" font-family="Times,serif" font-size="14.00" fill="#000000">6</text>
</g>
<!-- 1&#45;&gt;6 -->
<g id="edge3" class="edge">
<title>1-&gt;6</title>
<path fill="none" stroke="#ff0000" d="M82.437,-145.3008C89.603,-133.8352 99.0868,-118.6612 106.3071,-107.1086"/>
</g>
<!-- 5&#45;&gt;5 -->
<g id="edge4" class="edge">
<title>5-&gt;5</title>
<path fill="none" stroke="#000000" d="M46.895,-102.4321C59.688,-105.6753 72,-101.5313 72,-90 72,-78.4688 59.688,-74.3247 46.895,-77.5679"/>
</g>
<!-- 14 -->
<g id="node4" class="node">
<title>14</title>
<ellipse fill="none" stroke="#000000" cx="72" cy="-18" rx="27" ry="18"/>
<text text-anchor="middle" x="72" y="-13.8" font-family="Times,serif" font-size="14.00" fill="#000000">14</text>
</g>
<!-- 5&#45;&gt;14 -->
<g id="edge5" class="edge">
<title>5-&gt;14</title>
<path fill="none" stroke="#ff0000" d="M37.437,-73.3008C44.603,-61.8352 54.0868,-46.6612 61.3071,-35.1086"/>
</g>
<!-- 6&#45;&gt;6 -->
<g id="edge6" class="edge">
<title>6-&gt;6</title>
<path fill="none" stroke="#000000" d="M136.895,-102.4321C149.688,-105.6753 162,-101.5313 162,-90 162,-78.4688 149.688,-74.3247 136.895,-77.5679"/>
</g>
<!-- 6&#45;&gt;14 -->
<g id="edge7" class="edge">
<title>6-&gt;14</title>
<path fill="none" stroke="#00ff00" d="M106.563,-73.3008C99.397,-61.8352 89.9132,-46.6612 82.6929,-35.1086"/>
</g>
<!-- 14&#45;&gt;14 -->
<g id="edge8" class="edge">
<title>14-&gt;14</title>
<path fill="none" stroke="#000000" d="M91.895,-30.4321C104.688,-33.6753 117,-29.5313 117,-18 117,-6.4688 104.688,-2.3247 91.895,-5.5679"/>
</g>
</g>
</svg>