<?xml version="1.0" encoding="UTF-8" standalone="no"?>
<!DOCTYPE svg PUBLIC "-//W3C//DTD SVG 1.1//EN"
 "http://www.w3.org/Graphics/SVG/1.1/DTD/svg11.dtd">
<!-- Generated by graphviz version 2.43.0 (0)
 -->
<!-- Title: G Pages: 1 -->
<svg width="881pt" height="332pt"
 viewBox="0.00 0.00 881.00 332.00" xmlns="http://www.w3.org/2000/svg" xmlns:xlink="http://www.w3.org/1999/xlink">
<g id="graph0" class="graph" transform="scale(1 1) rotate(0) translate(4 328)">
<title>G</title>
<polygon fill="white" stroke="transparent" points="-4,4 -4,-328 877,-328 877,4 -4,4"/>
<!-- 0 -->
<g id="node1" class="node">
<title>0</title>
<ellipse fill="none" stroke="black" cx="27" cy="-306" rx="27" ry="18"/>
<text text-anchor="middle" x="27" y="-302.3" font-family="Times,serif" font-size="14.00">0</text>
</g>
<!-- 0&#45;&gt;0 -->
<g id="edge1" class="edge">
<title>0&#45;&gt;0</title>
<path fill="none" stroke="black" d="M53.35,-310.48C63.53,-310.68 72,-309.19 72,-306 72,-302.81 63.53,-301.32 53.35,-301.52"/>
</g>
<!-- 0&#45;&gt;0 -->
<g id="edge2" class="edge">
<title>0&#45;&gt;0</title>
<path fill="none" stroke="red" d="M51.57,-313.84C70.6,-316.77 90,-314.16 90,-306 90,-297.84 70.6,-295.23 51.57,-298.16"/>
</g>
<!-- 0&#45;&gt;0 -->
<g id="edge3" class="edge">
<title>0&#45;&gt;0</title>
<path fill="none" stroke="green" d="M49.8,-315.8C76.67,-322.98 108,-319.71 108,-306 108,-292.29 76.67,-289.02 49.8,-296.2"/>
</g>
<!-- 23 -->
<g id="node2" class="node">
<title>23</title>
<ellipse fill="none" stroke="black" cx="27" cy="-234" rx="27" ry="18"/>
<text text-anchor="middle" x="27" y="-230.3" font-family="Times,serif" font-size="14.00">23</text>
</g>
<!-- 0&#45;&gt;23 -->
<g id="edge4" class="edge">
<title>0&#45;&gt;23</title>
<path fill="none" stroke="purple" d="M27,-287.7C27,-276.85 27,-262.92 27,-252.1"/>
</g>
<!-- 23&#45;&gt;23 -->
<g id="edge57" class="edge">
<title>23&#45;&gt;23</title>
<path fill="none" stroke="black" d="M53.35,-238.48C63.53,-238.68 72,-237.19 72,-234 72,-230.81 63.53,-229.32 53.35,-229.52"/>
</g>
<!-- 23&#45;&gt;23 -->
<g id="edge58" class="edge">
<title>23&#45;&gt;23</title>
<path fill="none" stroke="red" d="M51.57,-241.84C70.6,-244.77 90,-242.16 90,-234 90,-225.84 70.6,-223.23 51.57,-226.16"/>
</g>
<!-- 23&#45;&gt;23 -->
<g id="edge59" class="edge">
<title>23&#45;&gt;23</title>
<path fill="none" stroke="green" d="M49.8,-243.8C76.67,-250.98 108,-247.71 108,-234 108,-220.29 76.67,-217.02 49.8,-224.2"/>
</g>
<!-- 1 -->
<g id="node3" class="node">
<title>1</title>
<ellipse fill="none" stroke="black" cx="243" cy="-306" rx="27" ry="18"/>
<text text-anchor="middle" x="243" y="-302.3" font-family="Times,serif" font-size="14.00">1</text>
</g>
<!-- 1&#45;&gt;1 -->
<g id="edge5" class="edge">
<title>1&#45;&gt;1</title>
<path fill="none" stroke="black" d="M262.9,-318.43C275.69,-321.68 288,-317.53 288,-306 288,-294.47 275.69,-290.32 262.9,-293.57"/>
</g>
<!-- 6 -->
<g id="node4" class="node">
<title>6</title>
<ellipse fill="none" stroke="black" cx="153" cy="-234" rx="27" ry="18"/>
<text text-anchor="middle" x="153" y="-230.3" font-family="Times,serif" font-size="14.00">6</text>
</g>
<!-- 1&#45;&gt;6 -->
<g id="edge6" class="edge">
<title>1&#45;&gt;6</title>
<path fill="none" stroke="red" d="M226.07,-291.83C209.98,-279.32 185.92,-260.6 169.85,-248.11"/>
</g>
<!-- 5 -->
<g id="node5" class="node">
<title>5</title>
<ellipse fill="none" stroke="black" cx="243" cy="-234" rx="27" ry="18"/>
<text text-anchor="middle" x="243" y="-230.3" font-family="Times,serif" font-size="14.00">5</text>
</g>
<!-- 1&#45;&gt;5 -->
<g id="edge7" class="edge">
<title>1&#45;&gt;5</title>
<path fill="none" stroke="green" d="M243,-287.7C243,-276.85 243,-262.92 243,-252.1"/>
</g>
<!-- 17 -->
<g id="node6" class="node">
<title>17</title>
<ellipse fill="none" stroke="black" cx="289" cy="-90" rx="27" ry="18"/>
<text text-anchor="middle" x="289" y="-86.3" font-family="Times,serif" font-size="14.00">17</text>
</g>
<!-- 1&#45;&gt;17 -->
<g id="edge8" class="edge">
<title>1&#45;&gt;17</title>
<path fill="none" stroke="purple" d="M261.56,-292.86C274.18,-283.42 289.83,-269.08 297,-252 317.58,-202.97 303.2,-138.03 294.42,-107.81"/>
</g>
<!-- 6&#45;&gt;6 -->
<g id="edge22" class="edge">
<title>6&#45;&gt;6</title>
<path fill="none" stroke="black" d="M172.9,-246.43C185.69,-249.68 198,-245.53 198,-234 198,-222.47 185.69,-218.32 172.9,-221.57"/>
</g>
<!-- 14 -->
<g id="node15" class="node">
<title>14</title>
<ellipse fill="none" stroke="black" cx="171" cy="-162" rx="27" ry="18"/>
<text text-anchor="middle" x="171" y="-158.3" font-family="Times,serif" font-size="14.00">14</text>
</g>
<!-- 6&#45;&gt;14 -->
<g id="edge23" class="edge">
<title>6&#45;&gt;14</title>
<path fill="none" stroke="green" d="M157.36,-216.05C160.19,-205.05 163.86,-190.76 166.68,-179.79"/>
</g>
<!-- 22 -->
<g id="node17" class="node">
<title>22</title>
<ellipse fill="none" stroke="black" cx="253" cy="-18" rx="27" ry="18"/>
<text text-anchor="middle" x="253" y="-14.3" font-family="Times,serif" font-size="14.00">22</text>
</g>
<!-- 6&#45;&gt;22 -->
<g id="edge24" class="edge">
<title>6&#45;&gt;22</title>
<path fill="none" stroke="purple" d="M145.03,-216.72C137.29,-198.72 127.71,-168.97 135,-144 145.65,-107.55 155.05,-99.72 181,-72 196.59,-55.34 218.02,-40.34 233.44,-30.58"/>
</g>
<!-- 5&#45;&gt;5 -->
<g id="edge19" class="edge">
<title>5&#45;&gt;5</title>
<path fill="none" stroke="black" d="M262.9,-246.43C275.69,-249.68 288,-245.53 288,-234 288,-222.47 275.69,-218.32 262.9,-221.57"/>
</g>
<!-- 5&#45;&gt;14 -->
<g id="edge20" class="edge">
<title>5&#45;&gt;14</title>
<path fill="none" stroke="red" d="M228.43,-218.83C216.02,-206.77 198.27,-189.51 185.8,-177.38"/>
</g>
<!-- 9 -->
<g id="node16" class="node">
<title>9</title>
<ellipse fill="none" stroke="black" cx="261" cy="-162" rx="27" ry="18"/>
<text text-anchor="middle" x="261" y="-158.3" font-family="Times,serif" font-size="14.00">9</text>
</g>
<!-- 5&#45;&gt;9 -->
<g id="edge21" class="edge">
<title>5&#45;&gt;9</title>
<path fill="none" stroke="purple" d="M247.36,-216.05C250.19,-205.05 253.86,-190.76 256.68,-179.79"/>
</g>
<!-- 17&#45;&gt;22 -->
<g id="edge50" class="edge">
<title>17&#45;&gt;22</title>
<path fill="none" stroke="black" d="M275.73,-74.15C268.6,-63 260.64,-47.7 255.88,-36.04"/>
</g>
<!-- 17&#45;&gt;22 -->
<g id="edge51" class="edge">
<title>17&#45;&gt;22</title>
<path fill="none" stroke="red" d="M286.16,-72.05C281.41,-60.4 273.44,-45.07 266.3,-33.89"/>
</g>
<!-- 2 -->
<g id="node7" class="node">
<title>2</title>
<ellipse fill="none" stroke="black" cx="371" cy="-306" rx="27" ry="18"/>
<text text-anchor="middle" x="371" y="-302.3" font-family="Times,serif" font-size="14.00">2</text>
</g>
<!-- 2&#45;&gt;2 -->
<g id="edge9" class="edge">
<title>2&#45;&gt;2</title>
<path fill="none" stroke="black" d="M397.35,-310.48C407.53,-310.68 416,-309.19 416,-306 416,-302.81 407.53,-301.32 397.35,-301.52"/>
</g>
<!-- 2&#45;&gt;2 -->
<g id="edge10" class="edge">
<title>2&#45;&gt;2</title>
<path fill="none" stroke="red" d="M395.57,-313.84C414.6,-316.77 434,-314.16 434,-306 434,-297.84 414.6,-295.23 395.57,-298.16"/>
</g>
<!-- 2&#45;&gt;2 -->
<g id="edge11" class="edge">
<title>2&#45;&gt;2</title>
<path fill="none" stroke="green" d="M393.8,-315.8C420.67,-322.98 452,-319.71 452,-306 452,-292.29 420.67,-289.02 393.8,-296.2"/>
</g>
<!-- 21 -->
<g id="node8" class="node">
<title>21</title>
<ellipse fill="none" stroke="black" cx="371" cy="-234" rx="27" ry="18"/>
<text text-anchor="middle" x="371" y="-230.3" font-family="Times,serif" font-size="14.00">21</text>
</g>
<!-- 2&#45;&gt;21 -->
<g id="edge12" class="edge">
<title>2&#45;&gt;21</title>
<path fill="none" stroke="purple" d="M371,-287.7C371,-276.85 371,-262.92 371,-252.1"/>
</g>
<!-- 21&#45;&gt;21 -->
<g id="edge54" class="edge">
<title>21&#45;&gt;21</title>
<path fill="none" stroke="black" d="M397.35,-238.48C407.53,-238.68 416,-237.19 416,-234 416,-230.81 407.53,-229.32 397.35,-229.52"/>
</g>
<!-- 21&#45;&gt;21 -->
<g id="edge55" class="edge">
<title>21&#45;&gt;21</title>
<path fill="none" stroke="red" d="M395.57,-241.84C414.6,-244.77 434,-242.16 434,-234 434,-225.84 414.6,-223.23 395.57,-226.16"/>
</g>
<!-- 21&#45;&gt;21 -->
<g id="edge56" class="edge">
<title>21&#45;&gt;21</title>
<path fill="none" stroke="green" d="M393.8,-243.8C420.67,-250.98 452,-247.71 452,-234 452,-220.29 420.67,-217.02 393.8,-224.2"/>
</g>
<!-- 3 -->
<g id="node9" class="node">
<title>3</title>
<ellipse fill="none" stroke="black" cx="549" cy="-306" rx="27" ry="18"/>
<text text-anchor="middle" x="549" y="-302.3" font-family="Times,serif" font-size="14.00">3</text>
</g>
<!-- 4 -->
<g id="node10" class="node">
<title>4</title>
<ellipse fill="none" stroke="black" cx="549" cy="-234" rx="27" ry="18"/>
<text text-anchor="middle" x="549" y="-230.3" font-family="Times,serif" font-size="14.00">4</text>
</g>
<!-- 3&#45;&gt;4 -->
<g id="edge13" class="edge">
<title>3&#45;&gt;4</title>
<path fill="none" stroke="black" d="M543.16,-288.41C541.96,-277.41 541.95,-263.03 543.12,-251.96"/>
</g>
<!-- 3&#45;&gt;4 -->
<g id="edge15" class="edge">
<title>3&#45;&gt;4</title>
<path fill="none" stroke="green" d="M554.84,-288.41C556.04,-277.41 556.05,-263.03 554.88,-251.96"/>
</g>
<!-- 12 -->
<g id="node11" class="node">
<title>12</title>
<ellipse fill="none" stroke="black" cx="535" cy="-90" rx="27" ry="18"/>
<text text-anchor="middle" x="535" y="-86.3" font-family="Times,serif" font-size="14.00">12</text>
</g>
<!-- 3&#45;&gt;12 -->
<g id="edge14" class="edge">
<title>3&#45;&gt;12</title>
<path fill="none" stroke="red" d="M536.17,-289.74C528.32,-279.64 518.73,-265.76 513,-252 500.47,-221.9 502.13,-212.45 499,-180 497.47,-164.07 494.3,-159.29 499,-144 503.38,-129.75 513.04,-115.9 521.25,-105.93"/>
</g>
<!-- 11 -->
<g id="node12" class="node">
<title>11</title>
<ellipse fill="none" stroke="black" cx="648" cy="-234" rx="27" ry="18"/>
<text text-anchor="middle" x="648" y="-230.3" font-family="Times,serif" font-size="14.00">11</text>
</g>
<!-- 3&#45;&gt;11 -->
<g id="edge16" class="edge">
<title>3&#45;&gt;11</title>
<path fill="none" stroke="purple" d="M567.16,-292.16C585.02,-279.53 612.13,-260.36 629.96,-247.76"/>
</g>
<!-- 8 -->
<g id="node13" class="node">
<title>8</title>
<ellipse fill="none" stroke="black" cx="535" cy="-162" rx="27" ry="18"/>
<text text-anchor="middle" x="535" y="-158.3" font-family="Times,serif" font-size="14.00">8</text>
</g>
<!-- 4&#45;&gt;8 -->
<g id="edge17" class="edge">
<title>4&#45;&gt;8</title>
<path fill="none" stroke="red" d="M545.61,-216.05C543.44,-205.21 540.64,-191.18 538.46,-180.28"/>
</g>
<!-- 15 -->
<g id="node14" class="node">
<title>15</title>
<ellipse fill="none" stroke="black" cx="607" cy="-162" rx="27" ry="18"/>
<text text-anchor="middle" x="607" y="-158.3" font-family="Times,serif" font-size="14.00">15</text>
</g>
<!-- 4&#45;&gt;15 -->
<g id="edge18" class="edge">
<title>4&#45;&gt;15</title>
<path fill="none" stroke="purple" d="M561.59,-217.81C571.31,-206.07 584.72,-189.89 594.44,-178.16"/>
</g>
<!-- 20 -->
<g id="node24" class="node">
<title>20</title>
<ellipse fill="none" stroke="black" cx="617" cy="-18" rx="27" ry="18"/>
<text text-anchor="middle" x="617" y="-14.3" font-family="Times,serif" font-size="14.00">20</text>
</g>
<!-- 12&#45;&gt;20 -->
<g id="edge42" class="edge">
<title>12&#45;&gt;20</title>
<path fill="none" stroke="purple" d="M551.2,-75.17C565.67,-62.82 586.74,-44.83 601.11,-32.56"/>
</g>
<!-- 11&#45;&gt;15 -->
<g id="edge41" class="edge">
<title>11&#45;&gt;15</title>
<path fill="none" stroke="green" d="M638.49,-216.76C631.87,-205.46 623.07,-190.44 616.46,-179.15"/>
</g>
<!-- 19 -->
<g id="node20" class="node">
<title>19</title>
<ellipse fill="none" stroke="black" cx="645" cy="-90" rx="27" ry="18"/>
<text text-anchor="middle" x="645" y="-86.3" font-family="Times,serif" font-size="14.00">19</text>
</g>
<!-- 11&#45;&gt;19 -->
<g id="edge39" class="edge">
<title>11&#45;&gt;19</title>
<path fill="none" stroke="black" d="M647.64,-215.87C647.06,-188.58 645.94,-135.52 645.36,-108.19"/>
</g>
<!-- 11&#45;&gt;20 -->
<g id="edge40" class="edge">
<title>11&#45;&gt;20</title>
<path fill="none" stroke="red" d="M657.53,-217.14C674.09,-187.35 704.31,-121.57 681,-72 672.16,-53.2 653.01,-38.78 637.95,-29.76"/>
</g>
<!-- 8&#45;&gt;12 -->
<g id="edge29" class="edge">
<title>8&#45;&gt;12</title>
<path fill="none" stroke="black" d="M529.16,-144.41C527.96,-133.41 527.95,-119.03 529.12,-107.96"/>
</g>
<!-- 8&#45;&gt;12 -->
<g id="edge30" class="edge">
<title>8&#45;&gt;12</title>
<path fill="none" stroke="green" d="M540.84,-144.41C542.04,-133.41 542.05,-119.03 540.88,-107.96"/>
</g>
<!-- 8&#45;&gt;19 -->
<g id="edge31" class="edge">
<title>8&#45;&gt;19</title>
<path fill="none" stroke="purple" d="M554.16,-148.81C574.35,-135.96 605.95,-115.85 626.06,-103.05"/>
</g>
<!-- 15&#45;&gt;19 -->
<g id="edge47" class="edge">
<title>15&#45;&gt;19</title>
<path fill="none" stroke="red" d="M615.81,-144.76C621.95,-133.46 630.11,-118.44 636.23,-107.15"/>
</g>
<!-- 15&#45;&gt;20 -->
<g id="edge46" class="edge">
<title>15&#45;&gt;20</title>
<path fill="none" stroke="black" d="M606.74,-143.9C606.62,-125.96 606.85,-96.94 609,-72 610.04,-59.95 612.09,-46.47 613.85,-36.12"/>
</g>
<!-- 14&#45;&gt;14 -->
<g id="edge44" class="edge">
<title>14&#45;&gt;14</title>
<path fill="none" stroke="black" d="M190.9,-174.43C203.69,-177.68 216,-173.53 216,-162 216,-150.47 203.69,-146.32 190.9,-149.57"/>
</g>
<!-- 18 -->
<g id="node21" class="node">
<title>18</title>
<ellipse fill="none" stroke="black" cx="217" cy="-90" rx="27" ry="18"/>
<text text-anchor="middle" x="217" y="-86.3" font-family="Times,serif" font-size="14.00">18</text>
</g>
<!-- 14&#45;&gt;18 -->
<g id="edge45" class="edge">
<title>14&#45;&gt;18</title>
<path fill="none" stroke="purple" d="M181.44,-145.12C188.97,-133.66 199.08,-118.26 206.6,-106.82"/>
</g>
<!-- 9&#45;&gt;17 -->
<g id="edge34" class="edge">
<title>9&#45;&gt;17</title>
<path fill="none" stroke="green" d="M267.64,-144.41C272.1,-133.25 277.96,-118.6 282.41,-107.47"/>
</g>
<!-- 9&#45;&gt;18 -->
<g id="edge32" class="edge">
<title>9&#45;&gt;18</title>
<path fill="none" stroke="black" d="M246.29,-146.5C237.8,-135.28 227.93,-119.74 221.78,-107.95"/>
</g>
<!-- 9&#45;&gt;18 -->
<g id="edge33" class="edge">
<title>9&#45;&gt;18</title>
<path fill="none" stroke="red" d="M256.23,-144.05C250.05,-132.24 240.15,-116.64 231.65,-105.42"/>
</g>
<!-- 7 -->
<g id="node18" class="node">
<title>7</title>
<ellipse fill="none" stroke="black" cx="720" cy="-306" rx="27" ry="18"/>
<text text-anchor="middle" x="720" y="-302.3" font-family="Times,serif" font-size="14.00">7</text>
</g>
<!-- 7&#45;&gt;7 -->
<g id="edge25" class="edge">
<title>7&#45;&gt;7</title>
<path fill="none" stroke="black" d="M745.44,-312.69C756.03,-313.15 765,-310.92 765,-306 765,-301.08 756.03,-298.85 745.44,-299.31"/>
</g>
<!-- 7&#45;&gt;7 -->
<g id="edge26" class="edge">
<title>7&#45;&gt;7</title>
<path fill="none" stroke="red" d="M741.63,-317.01C761.54,-322.54 783,-318.87 783,-306 783,-293.13 761.54,-289.46 741.63,-294.99"/>
</g>
<!-- 16 -->
<g id="node19" class="node">
<title>16</title>
<ellipse fill="none" stroke="black" cx="720" cy="-234" rx="27" ry="18"/>
<text text-anchor="middle" x="720" y="-230.3" font-family="Times,serif" font-size="14.00">16</text>
</g>
<!-- 7&#45;&gt;16 -->
<g id="edge27" class="edge">
<title>7&#45;&gt;16</title>
<path fill="none" stroke="green" d="M714.16,-288.41C712.96,-277.41 712.95,-263.03 714.12,-251.96"/>
</g>
<!-- 7&#45;&gt;16 -->
<g id="edge28" class="edge">
<title>7&#45;&gt;16</title>
<path fill="none" stroke="purple" d="M725.84,-288.41C727.04,-277.41 727.05,-263.03 725.88,-251.96"/>
</g>
<!-- 16&#45;&gt;16 -->
<g id="edge48" class="edge">
<title>16&#45;&gt;16</title>
<path fill="none" stroke="black" d="M745.44,-240.69C756.03,-241.15 765,-238.92 765,-234 765,-229.08 756.03,-226.85 745.44,-227.31"/>
</g>
<!-- 16&#45;&gt;16 -->
<g id="edge49" class="edge">
<title>16&#45;&gt;16</title>
<path fill="none" stroke="red" d="M741.63,-245.01C761.54,-250.54 783,-246.87 783,-234 783,-221.13 761.54,-217.46 741.63,-222.99"/>
</g>
<!-- 19&#45;&gt;20 -->
<g id="edge53" class="edge">
<title>19&#45;&gt;20</title>
<path fill="none" stroke="green" d="M638.36,-72.41C633.9,-61.25 628.04,-46.6 623.59,-35.47"/>
</g>
<!-- 18&#45;&gt;22 -->
<g id="edge52" class="edge">
<title>18&#45;&gt;22</title>
<path fill="none" stroke="green" d="M225.35,-72.76C231.17,-61.46 238.89,-46.44 244.7,-35.15"/>
</g>
<!-- 10 -->
<g id="node22" class="node">
<title>10</title>
<ellipse fill="none" stroke="black" cx="828" cy="-306" rx="27" ry="18"/>
<text text-anchor="middle" x="828" y="-302.3" font-family="Times,serif" font-size="14.00">10</text>
</g>
<!-- 10&#45;&gt;10 -->
<g id="edge36" class="edge">
<title>10&#45;&gt;10</title>
<path fill="none" stroke="red" d="M847.9,-318.43C860.69,-321.68 873,-317.53 873,-306 873,-294.47 860.69,-290.32 847.9,-293.57"/>
</g>
<!-- 13 -->
<g id="node23" class="node">
<title>13</title>
<ellipse fill="none" stroke="black" cx="828" cy="-234" rx="27" ry="18"/>
<text text-anchor="middle" x="828" y="-230.3" font-family="Times,serif" font-size="14.00">13</text>
</g>
<!-- 10&#45;&gt;13 -->
<g id="edge35" class="edge">
<title>10&#45;&gt;13</title>
<path fill="none" stroke="black" d="M816.56,-289.46C813.81,-277.86 813.81,-262.08 816.57,-250.49"/>
</g>
<!-- 10&#45;&gt;13 -->
<g id="edge37" class="edge">
<title>10&#45;&gt;13</title>
<path fill="none" stroke="green" d="M828,-287.7C828,-276.85 828,-262.92 828,-252.1"/>
</g>
<!-- 10&#45;&gt;13 -->
<g id="edge38" class="edge">
<title>10&#45;&gt;13</title>
<path fill="none" stroke="purple" d="M839.44,-289.46C842.19,-277.86 842.19,-262.08 839.43,-250.49"/>
</g>
<!-- 13&#45;&gt;13 -->
<g id="edge43" class="edge">
<title>13&#45;&gt;13</title>
<path fill="none" stroke="red" d="M847.9,-246.43C860.69,-249.68 873,-245.53 873,-234 873,-222.47 860.69,-218.32 847.9,-221.57"/>
</g>
</g>
</svg>
