<?xml version="1.0" encoding="UTF-8" standalone="no"?>
<!DOCTYPE svg PUBLIC "-//W3C//DTD SVG 1.1//EN"
 "http://www.w3.org/Graphics/SVG/1.1/DTD/svg11.dtd">
<!-- Generated by graphviz version 2.43.0 (0)
 -->
<!-- Title: G Pages: 1 -->
<svg width="197pt" height="332pt"
 viewBox="0.00 0.00 197.00 332.00" xmlns="http://www.w3.org/2000/svg" xmlns:xlink="http://www.w3.org/1999/xlink">
<g id="graph0" class="graph" transform="scale(1 1) rotate(0) translate(4 328)">
<title>G</title>
<polygon fill="white" stroke="transparent" points="-4,4 -4,-328 193,-328 193,4 -4,4"/>
<!-- 1 -->
<g id="node1" class="node">
<title>1</title>
<ellipse fill="none" stroke="black" cx="117" cy="-306" rx="27" ry="18"/>
<text text-anchor="middle" x="117" y="-302.3" font-family="Times,serif" font-size="14.00">1</text>
</g>
<!-- 1&#45;&gt;1 -->
<g id="edge1" class="edge">
<title>1&#45;&gt;1</title>
<path fill="none" stroke="black" d="M136.9,-318.43C149.69,-321.68 162,-317.53 162,-306 162,-294.47 149.69,-290.32 136.9,-293.57"/>
</g>
<!-- 6 -->
<g id="node2" class="node">
<title>6</title>
<ellipse fill="none" stroke="black" cx="27" cy="-234" rx="27" ry="18"/>
<text text-anchor="middle" x="27" y="-230.3" font-family="Times,serif" font-size="14.00">6</text>
</g>
<!-- 1&#45;&gt;6 -->
<g id="edge2" class="edge">
<title>1&#45;&gt;6</title>
<path fill="none" stroke="red" d="M100.07,-291.83C83.98,-279.32 59.92,-260.6 43.85,-248.11"/>
</g>
<!-- 5 -->
<g id="node3" class="node">
<title>5</title>
<ellipse fill="none" stroke="black" cx="117" cy="-234" rx="27" ry="18"/>
<text text-anchor="middle" x="117" y="-230.3" font-family="Times,serif" font-size="14.00">5</text>
</g>
<!-- 1&#45;&gt;5 -->
<g id="edge3" class="edge">
<title>1&#45;&gt;5</title>
<path fill="none" stroke="green" d="M117,-287.7C117,-276.85 117,-262.92 117,-252.1"/>
</g>
<!-- 17 -->
<g id="node4" class="node">
<title>17</title>
<ellipse fill="none" stroke="black" cx="162" cy="-90" rx="27" ry="18"/>
<text text-anchor="middle" x="162" y="-86.3" font-family="Times,serif" font-size="14.00">17</text>
</g>
<!-- 1&#45;&gt;17 -->
<g id="edge4" class="edge">
<title>1&#45;&gt;17</title>
<path fill="none" stroke="purple" d="M135.56,-292.86C148.18,-283.42 163.83,-269.08 171,-252 191.58,-202.95 176.66,-138.03 167.59,-107.81"/>
</g>
<!-- 6&#45;&gt;6 -->
<g id="edge8" class="edge">
<title>6&#45;&gt;6</title>
<path fill="none" stroke="black" d="M46.9,-246.43C59.69,-249.68 72,-245.53 72,-234 72,-222.47 59.69,-218.32 46.9,-221.57"/>
</g>
<!-- 14 -->
<g id="node5" class="node">
<title>14</title>
<ellipse fill="none" stroke="black" cx="45" cy="-162" rx="27" ry="18"/>
<text text-anchor="middle" x="45" y="-158.3" font-family="Times,serif" font-size="14.00">14</text>
</g>
<!-- 6&#45;&gt;14 -->
<g id="edge9" class="edge">
<title>6&#45;&gt;14</title>
<path fill="none" stroke="green" d="M31.36,-216.05C34.19,-205.05 37.86,-190.76 40.68,-179.79"/>
</g>
<!-- 22 -->
<g id="node7" class="node">
<title>22</title>
<ellipse fill="none" stroke="black" cx="126" cy="-18" rx="27" ry="18"/>
<text text-anchor="middle" x="126" y="-14.3" font-family="Times,serif" font-size="14.00">22</text>
</g>
<!-- 6&#45;&gt;22 -->
<g id="edge10" class="edge">
<title>6&#45;&gt;22</title>
<path fill="none" stroke="purple" d="M19.08,-216.74C11.38,-198.75 1.83,-169 9,-144 19.4,-107.73 28.35,-99.68 54,-72 69.51,-55.27 90.95,-40.27 106.39,-30.54"/>
</g>
<!-- 5&#45;&gt;5 -->
<g id="edge5" class="edge">
<title>5&#45;&gt;5</title>
<path fill="none" stroke="black" d="M136.9,-246.43C149.69,-249.68 162,-245.53 162,-234 162,-222.47 149.69,-218.32 136.9,-221.57"/>
</g>
<!-- 5&#45;&gt;14 -->
<g id="edge6" class="edge">
<title>5&#45;&gt;14</title>
<path fill="none" stroke="red" d="M102.43,-218.83C90.02,-206.77 72.27,-189.51 59.8,-177.38"/>
</g>
<!-- 9 -->
<g id="node6" class="node">
<title>9</title>
<ellipse fill="none" stroke="black" cx="135" cy="-162" rx="27" ry="18"/>
<text text-anchor="middle" x="135" y="-158.3" font-family="Times,serif" font-size="14.00">9</text>
</g>
<!-- 5&#45;&gt;9 -->
<g id="edge7" class="edge">
<title>5&#45;&gt;9</title>
<path fill="none" stroke="purple" d="M121.36,-216.05C124.19,-205.05 127.86,-190.76 130.68,-179.79"/>
</g>
<!-- 17&#45;&gt;22 -->
<g id="edge16" class="edge">
<title>17&#45;&gt;22</title>
<path fill="none" stroke="black" d="M148.73,-74.15C141.6,-63 133.64,-47.7 128.88,-36.04"/>
</g>
<!-- 17&#45;&gt;22 -->
<g id="edge17" class="edge">
<title>17&#45;&gt;22</title>
<path fill="none" stroke="red" d="M159.16,-72.05C154.41,-60.4 146.44,-45.07 139.3,-33.89"/>
</g>
<!-- 14&#45;&gt;14 -->
<g id="edge14" class="edge">
<title>14&#45;&gt;14</title>
<path fill="none" stroke="black" d="M64.9,-174.43C77.69,-177.68 90,-173.53 90,-162 90,-150.47 77.69,-146.32 64.9,-149.57"/>
</g>
<!-- 18 -->
<g id="node8" class="node">
<title>18</title>
<ellipse fill="none" stroke="black" cx="90" cy="-90" rx="27" ry="18"/>
<text text-anchor="middle" x="90" y="-86.3" font-family="Times,serif" font-size="14.00">18</text>
</g>
<!-- 14&#45;&gt;18 -->
<g id="edge15" class="edge">
<title>14&#45;&gt;18</title>
<path fill="none" stroke="purple" d="M55.21,-145.12C62.58,-133.66 72.47,-118.26 79.83,-106.82"/>
</g>
<!-- 9&#45;&gt;17 -->
<g id="edge13" class="edge">
<title>9&#45;&gt;17</title>
<path fill="none" stroke="green" d="M141.4,-144.41C145.64,-133.41 151.19,-119.03 155.46,-107.96"/>
</g>
<!-- 9&#45;&gt;18 -->
<g id="edge11" class="edge">
<title>9&#45;&gt;18</title>
<path fill="none" stroke="black" d="M120.34,-146.83C111.62,-135.57 101.36,-119.77 94.97,-107.86"/>
</g>
<!-- 9&#45;&gt;18 -->
<g id="edge12" class="edge">
<title>9&#45;&gt;18</title>
<path fill="none" stroke="red" d="M129.98,-144.05C123.64,-132.24 113.52,-116.64 104.86,-105.42"/>
</g>
<!-- 18&#45;&gt;22 -->
<g id="edge18" class="edge">
<title>18&#45;&gt;22</title>
<path fill="none" stroke="green" d="M98.35,-72.76C104.17,-61.46 111.89,-46.44 117.7,-35.15"/>
</g>
</g>
</svg>
