<?xml version="1.0" encoding="UTF-8" standalone="no"?>
<!DOCTYPE svg PUBLIC "-//W3C//DTD SVG 1.1//EN"
 "http://www.w3.org/Graphics/SVG/1.1/DTD/svg11.dtd">
<!-- Generated by graphviz version 2.43.0 (0)
 -->
<!-- Title: G Pages: 1 -->
<svg width="208pt" height="332pt"
 viewBox="0.00 0.00 208.31 332.00" xmlns="http://www.w3.org/2000/svg" xmlns:xlink="http://www.w3.org/1999/xlink">
<g id="graph0" class="graph" transform="scale(1 1) rotate(0) translate(4 328)">
<title>G</title>
<polygon fill="white" stroke="transparent" points="-4,4 -4,-328 204.31,-328 204.31,4 -4,4"/>
<!-- 3 -->
<g id="node1" class="node">
<title>3</title>
<ellipse fill="none" stroke="black" cx="46.58" cy="-306" rx="27" ry="18"/>
<text text-anchor="middle" x="46.58" y="-302.3" font-family="Times,serif" font-size="14.00">3</text>
</g>
<!-- 4 -->
<g id="node2" class="node">
<title>4</title>
<ellipse fill="none" stroke="black" cx="46.58" cy="-234" rx="27" ry="18"/>
<text text-anchor="middle" x="46.58" y="-230.3" font-family="Times,serif" font-size="14.00">4</text>
</g>
<!-- 3&#45;&gt;4 -->
<g id="edge1" class="edge">
<title>3&#45;&gt;4</title>
<path fill="none" stroke="black" d="M40.74,-288.41C39.54,-277.41 39.53,-263.03 40.7,-251.96"/>
</g>
<!-- 3&#45;&gt;4 -->
<g id="edge3" class="edge">
<title>3&#45;&gt;4</title>
<path fill="none" stroke="green" d="M52.42,-288.41C53.62,-277.41 53.63,-263.03 52.46,-251.96"/>
</g>
<!-- 12 -->
<g id="node3" class="node">
<title>12</title>
<ellipse fill="none" stroke="black" cx="46.58" cy="-90" rx="27" ry="18"/>
<text text-anchor="middle" x="46.58" y="-86.3" font-family="Times,serif" font-size="14.00">12</text>
</g>
<!-- 3&#45;&gt;12 -->
<g id="edge2" class="edge">
<title>3&#45;&gt;12</title>
<path fill="none" stroke="red" d="M32.83,-290.07C24.62,-280.1 14.96,-266.25 10.58,-252 -3.53,-206.12 -3.53,-189.88 10.58,-144 14.96,-129.75 24.62,-115.9 32.83,-105.93"/>
</g>
<!-- 11 -->
<g id="node4" class="node">
<title>11</title>
<ellipse fill="none" stroke="black" cx="145.58" cy="-234" rx="27" ry="18"/>
<text text-anchor="middle" x="145.58" y="-230.3" font-family="Times,serif" font-size="14.00">11</text>
</g>
<!-- 3&#45;&gt;11 -->
<g id="edge4" class="edge">
<title>3&#45;&gt;11</title>
<path fill="none" stroke="purple" d="M64.74,-292.16C82.6,-279.53 109.72,-260.36 127.54,-247.76"/>
</g>
<!-- 8 -->
<g id="node5" class="node">
<title>8</title>
<ellipse fill="none" stroke="black" cx="46.58" cy="-162" rx="27" ry="18"/>
<text text-anchor="middle" x="46.58" y="-158.3" font-family="Times,serif" font-size="14.00">8</text>
</g>
<!-- 4&#45;&gt;8 -->
<g id="edge5" class="edge">
<title>4&#45;&gt;8</title>
<path fill="none" stroke="red" d="M46.58,-215.7C46.58,-204.85 46.58,-190.92 46.58,-180.1"/>
</g>
<!-- 15 -->
<g id="node6" class="node">
<title>15</title>
<ellipse fill="none" stroke="black" cx="118.58" cy="-162" rx="27" ry="18"/>
<text text-anchor="middle" x="118.58" y="-158.3" font-family="Times,serif" font-size="14.00">15</text>
</g>
<!-- 4&#45;&gt;15 -->
<g id="edge6" class="edge">
<title>4&#45;&gt;15</title>
<path fill="none" stroke="purple" d="M61.15,-218.83C73.56,-206.77 91.31,-189.51 103.79,-177.38"/>
</g>
<!-- 20 -->
<g id="node8" class="node">
<title>20</title>
<ellipse fill="none" stroke="black" cx="128.58" cy="-18" rx="27" ry="18"/>
<text text-anchor="middle" x="128.58" y="-14.3" font-family="Times,serif" font-size="14.00">20</text>
</g>
<!-- 12&#45;&gt;20 -->
<g id="edge13" class="edge">
<title>12&#45;&gt;20</title>
<path fill="none" stroke="purple" d="M62.78,-75.17C77.25,-62.82 98.32,-44.83 112.69,-32.56"/>
</g>
<!-- 11&#45;&gt;15 -->
<g id="edge12" class="edge">
<title>11&#45;&gt;15</title>
<path fill="none" stroke="green" d="M139.18,-216.41C134.94,-205.41 129.39,-191.03 125.12,-179.96"/>
</g>
<!-- 19 -->
<g id="node7" class="node">
<title>19</title>
<ellipse fill="none" stroke="black" cx="156.58" cy="-90" rx="27" ry="18"/>
<text text-anchor="middle" x="156.58" y="-86.3" font-family="Times,serif" font-size="14.00">19</text>
</g>
<!-- 11&#45;&gt;19 -->
<g id="edge10" class="edge">
<title>11&#45;&gt;19</title>
<path fill="none" stroke="black" d="M149.14,-215.9C151.12,-205.56 153.43,-192.08 154.58,-180 156.96,-155.08 157.13,-126.06 156.93,-108.11"/>
</g>
<!-- 11&#45;&gt;20 -->
<g id="edge11" class="edge">
<title>11&#45;&gt;20</title>
<path fill="none" stroke="red" d="M157.39,-217.33C178.04,-187.86 216.37,-122.59 192.58,-72 183.74,-53.2 164.6,-38.78 149.54,-29.76"/>
</g>
<!-- 8&#45;&gt;12 -->
<g id="edge7" class="edge">
<title>8&#45;&gt;12</title>
<path fill="none" stroke="black" d="M40.74,-144.41C39.54,-133.41 39.53,-119.03 40.7,-107.96"/>
</g>
<!-- 8&#45;&gt;12 -->
<g id="edge8" class="edge">
<title>8&#45;&gt;12</title>
<path fill="none" stroke="green" d="M52.42,-144.41C53.62,-133.41 53.63,-119.03 52.46,-107.96"/>
</g>
<!-- 8&#45;&gt;19 -->
<g id="edge9" class="edge">
<title>8&#45;&gt;19</title>
<path fill="none" stroke="purple" d="M65.74,-148.81C85.93,-135.96 117.53,-115.85 137.64,-103.05"/>
</g>
<!-- 15&#45;&gt;19 -->
<g id="edge15" class="edge">
<title>15&#45;&gt;19</title>
<path fill="none" stroke="red" d="M127.39,-144.76C133.53,-133.46 141.69,-118.44 147.82,-107.15"/>
</g>
<!-- 15&#45;&gt;20 -->
<g id="edge14" class="edge">
<title>15&#45;&gt;20</title>
<path fill="none" stroke="black" d="M118.32,-143.9C118.2,-125.96 118.43,-96.94 120.58,-72 121.62,-59.95 123.67,-46.47 125.43,-36.12"/>
</g>
<!-- 19&#45;&gt;20 -->
<g id="edge16" class="edge">
<title>19&#45;&gt;20</title>
<path fill="none" stroke="green" d="M149.95,-72.41C145.48,-61.25 139.62,-46.6 135.17,-35.47"/>
</g>
</g>
</svg>
