<?xml version="1.0" encoding="UTF-8" standalone="no"?>
<!DOCTYPE svg PUBLIC "-//W3C//DTD SVG 1.1//EN"
 "http://www.w3.org/Graphics/SVG/1.1/DTD/svg11.dtd">
<!-- Generated by graphviz version 2.43.0 (0)
 -->
<!-- Title: G Pages: 1 -->
<svg width="302pt" height="404pt"
 viewBox="0.00 0.00 302.00 404.00" xmlns="http://www.w3.org/2000/svg" xmlns:xlink="http://www.w3.org/1999/xlink">
<g id="graph0" class="graph" transform="scale(1 1) rotate(0) translate(4 400)">
<title>G</title>
<polygon fill="white" stroke="transparent" points="-4,4 -4,-400 298,-400 298,4 -4,4"/>
<!-- 1 -->
<g id="node1" class="node">
<title>1</title>
<ellipse fill="none" stroke="black" cx="71" cy="-378" rx="27" ry="18"/>
<text text-anchor="middle" x="71" y="-374.3" font-family="Times,serif" font-size="14.00">1</text>
</g>
<!-- 1&#45;&gt;1 -->
<g id="edge1" class="edge">
<title>1&#45;&gt;1</title>
<path fill="none" stroke="black" d="M90.9,-390.43C103.69,-393.68 116,-389.53 116,-378 116,-366.47 103.69,-362.32 90.9,-365.57"/>
</g>
<!-- 6 -->
<g id="node2" class="node">
<title>6</title>
<ellipse fill="none" stroke="black" cx="27" cy="-234" rx="27" ry="18"/>
<text text-anchor="middle" x="27" y="-230.3" font-family="Times,serif" font-size="14.00">6</text>
</g>
<!-- 1&#45;&gt;6 -->
<g id="edge2" class="edge">
<title>1&#45;&gt;6</title>
<path fill="none" stroke="red" d="M61.57,-360.99C50.2,-334 33.35,-279.72 27.71,-252.06"/>
</g>
<!-- 1&#45;&gt;6 -->
<g id="edge5" class="edge">
<title>1&#45;&gt;6</title>
<path fill="none" stroke="cyan" d="M70.28,-359.87C64.65,-332.28 47.91,-278.37 36.55,-251.31"/>
</g>
<!-- 5 -->
<g id="node3" class="node">
<title>5</title>
<ellipse fill="none" stroke="black" cx="126" cy="-306" rx="27" ry="18"/>
<text text-anchor="middle" x="126" y="-302.3" font-family="Times,serif" font-size="14.00">5</text>
</g>
<!-- 1&#45;&gt;5 -->
<g id="edge3" class="edge">
<title>1&#45;&gt;5</title>
<path fill="none" stroke="green" d="M82.93,-361.81C92.16,-350.07 104.87,-333.89 114.09,-322.16"/>
</g>
<!-- 17 -->
<g id="node4" class="node">
<title>17</title>
<ellipse fill="none" stroke="black" cx="267" cy="-90" rx="27" ry="18"/>
<text text-anchor="middle" x="267" y="-86.3" font-family="Times,serif" font-size="14.00">17</text>
</g>
<!-- 1&#45;&gt;17 -->
<g id="edge4" class="edge">
<title>1&#45;&gt;17</title>
<path fill="none" stroke="purple" d="M95.29,-369.64C137.91,-355.21 224.61,-318.62 256,-252 278.69,-203.85 273.76,-138.48 269.71,-107.98"/>
</g>
<!-- 6&#45;&gt;6 -->
<g id="edge10" class="edge">
<title>6&#45;&gt;6</title>
<path fill="none" stroke="black" d="M46.9,-246.43C59.69,-249.68 72,-245.53 72,-234 72,-222.47 59.69,-218.32 46.9,-221.57"/>
</g>
<!-- 14 -->
<g id="node5" class="node">
<title>14</title>
<ellipse fill="none" stroke="black" cx="138" cy="-162" rx="27" ry="18"/>
<text text-anchor="middle" x="138" y="-158.3" font-family="Times,serif" font-size="14.00">14</text>
</g>
<!-- 6&#45;&gt;14 -->
<g id="edge11" class="edge">
<title>6&#45;&gt;14</title>
<path fill="none" stroke="green" d="M46.08,-220.97C66.41,-208.15 98.42,-187.96 118.8,-175.11"/>
</g>
<!-- 22 -->
<g id="node8" class="node">
<title>22</title>
<ellipse fill="none" stroke="black" cx="267" cy="-18" rx="27" ry="18"/>
<text text-anchor="middle" x="267" y="-14.3" font-family="Times,serif" font-size="14.00">22</text>
</g>
<!-- 6&#45;&gt;22 -->
<g id="edge12" class="edge">
<title>6&#45;&gt;22</title>
<path fill="none" stroke="purple" d="M36.15,-216.92C55.09,-184.95 101.67,-113 159,-72 186.01,-52.68 221.13,-36.92 243.87,-27.74"/>
</g>
<!-- 5&#45;&gt;5 -->
<g id="edge6" class="edge">
<title>5&#45;&gt;5</title>
<path fill="none" stroke="black" d="M145.9,-318.43C158.69,-321.68 171,-317.53 171,-306 171,-294.47 158.69,-290.32 145.9,-293.57"/>
</g>
<!-- 5&#45;&gt;14 -->
<g id="edge7" class="edge">
<title>5&#45;&gt;14</title>
<path fill="none" stroke="red" d="M127.45,-287.87C129.75,-260.58 134.24,-207.52 136.55,-180.19"/>
</g>
<!-- 9 -->
<g id="node6" class="node">
<title>9</title>
<ellipse fill="none" stroke="black" cx="220" cy="-234" rx="27" ry="18"/>
<text text-anchor="middle" x="220" y="-230.3" font-family="Times,serif" font-size="14.00">9</text>
</g>
<!-- 5&#45;&gt;9 -->
<g id="edge8" class="edge">
<title>5&#45;&gt;9</title>
<path fill="none" stroke="purple" d="M143.68,-291.83C160.59,-279.24 185.94,-260.37 202.72,-247.87"/>
</g>
<!-- 18 -->
<g id="node7" class="node">
<title>18</title>
<ellipse fill="none" stroke="black" cx="195" cy="-90" rx="27" ry="18"/>
<text text-anchor="middle" x="195" y="-86.3" font-family="Times,serif" font-size="14.00">18</text>
</g>
<!-- 5&#45;&gt;18 -->
<g id="edge9" class="edge">
<title>5&#45;&gt;18</title>
<path fill="none" stroke="cyan" d="M117.14,-288.64C101.87,-258.02 74.74,-190.91 102,-144 116.57,-118.93 147.91,-104.74 170.18,-97.47"/>
</g>
<!-- 17&#45;&gt;22 -->
<g id="edge19" class="edge">
<title>17&#45;&gt;22</title>
<path fill="none" stroke="black" d="M255.56,-73.46C252.81,-61.86 252.81,-46.08 255.57,-34.49"/>
</g>
<!-- 17&#45;&gt;22 -->
<g id="edge20" class="edge">
<title>17&#45;&gt;22</title>
<path fill="none" stroke="red" d="M267,-71.7C267,-60.85 267,-46.92 267,-36.1"/>
</g>
<!-- 17&#45;&gt;22 -->
<g id="edge21" class="edge">
<title>17&#45;&gt;22</title>
<path fill="none" stroke="cyan" d="M278.44,-73.46C281.19,-61.86 281.19,-46.08 278.43,-34.49"/>
</g>
<!-- 14&#45;&gt;14 -->
<g id="edge17" class="edge">
<title>14&#45;&gt;14</title>
<path fill="none" stroke="black" d="M157.9,-174.43C170.69,-177.68 183,-173.53 183,-162 183,-150.47 170.69,-146.32 157.9,-149.57"/>
</g>
<!-- 14&#45;&gt;18 -->
<g id="edge18" class="edge">
<title>14&#45;&gt;18</title>
<path fill="none" stroke="purple" d="M150.37,-145.81C159.93,-134.07 173.1,-117.89 182.66,-106.16"/>
</g>
<!-- 9&#45;&gt;17 -->
<g id="edge15" class="edge">
<title>9&#45;&gt;17</title>
<path fill="none" stroke="green" d="M225.58,-216.15C234.62,-188.82 252.39,-135.14 261.43,-107.82"/>
</g>
<!-- 9&#45;&gt;14 -->
<g id="edge16" class="edge">
<title>9&#45;&gt;14</title>
<path fill="none" stroke="cyan" d="M203.8,-219.17C189.33,-206.82 168.26,-188.83 153.89,-176.56"/>
</g>
<!-- 9&#45;&gt;18 -->
<g id="edge13" class="edge">
<title>9&#45;&gt;18</title>
<path fill="none" stroke="black" d="M212.56,-216.43C204.85,-189.36 195.42,-135.91 193.45,-108.35"/>
</g>
<!-- 9&#45;&gt;18 -->
<g id="edge14" class="edge">
<title>9&#45;&gt;18</title>
<path fill="none" stroke="red" d="M221.57,-215.87C219.64,-188.43 210.21,-134.95 202.49,-107.75"/>
</g>
<!-- 18&#45;&gt;22 -->
<g id="edge22" class="edge">
<title>18&#45;&gt;22</title>
<path fill="none" stroke="green" d="M209.57,-74.83C221.98,-62.77 239.73,-45.51 252.2,-33.38"/>
</g>
</g>
</svg>
