<?xml version="1.0" encoding="UTF-8" standalone="no"?>
<!DOCTYPE svg PUBLIC "-//W3C//DTD SVG 1.1//EN"
 "http://www.w3.org/Graphics/SVG/1.1/DTD/svg11.dtd">
<!-- Generated by graphviz version 2.43.0 (0)
 -->
<!-- Title: G Pages: 1 -->
<svg width="265pt" height="404pt"
 viewBox="0.00 0.00 265.00 404.00" xmlns="http://www.w3.org/2000/svg" xmlns:xlink="http://www.w3.org/1999/xlink">
<g id="graph0" class="graph" transform="scale(1 1) rotate(0) translate(4 400)">
<title>G</title>
<polygon fill="white" stroke="transparent" points="-4,4 -4,-400 261,-400 261,4 -4,4"/>
<!-- 3 -->
<g id="node1" class="node">
<title>3</title>
<ellipse fill="none" stroke="black" cx="97" cy="-378" rx="27" ry="18"/>
<text text-anchor="middle" x="97" y="-374.3" font-family="Times,serif" font-size="14.00">3</text>
</g>
<!-- 4 -->
<g id="node2" class="node">
<title>4</title>
<ellipse fill="none" stroke="black" cx="97" cy="-306" rx="27" ry="18"/>
<text text-anchor="middle" x="97" y="-302.3" font-family="Times,serif" font-size="14.00">4</text>
</g>
<!-- 3&#45;&gt;4 -->
<g id="edge1" class="edge">
<title>3&#45;&gt;4</title>
<path fill="none" stroke="black" d="M91.16,-360.41C89.96,-349.41 89.95,-335.03 91.12,-323.96"/>
</g>
<!-- 3&#45;&gt;4 -->
<g id="edge3" class="edge">
<title>3&#45;&gt;4</title>
<path fill="none" stroke="green" d="M102.84,-360.41C104.04,-349.41 104.05,-335.03 102.88,-323.96"/>
</g>
<!-- 12 -->
<g id="node3" class="node">
<title>12</title>
<ellipse fill="none" stroke="black" cx="27" cy="-162" rx="27" ry="18"/>
<text text-anchor="middle" x="27" y="-158.3" font-family="Times,serif" font-size="14.00">12</text>
</g>
<!-- 3&#45;&gt;12 -->
<g id="edge2" class="edge">
<title>3&#45;&gt;12</title>
<path fill="none" stroke="red" d="M79.58,-364.04C70.13,-353.63 59.47,-338.42 52,-324 36.29,-293.65 32.41,-285.36 25,-252 19.49,-227.19 18.16,-197.64 20.29,-179.61"/>
</g>
<!-- 3&#45;&gt;12 -->
<g id="edge5" class="edge">
<title>3&#45;&gt;12</title>
<path fill="none" stroke="cyan" d="M91.78,-359.98C85.55,-349.89 76.55,-336.64 70,-324 54.29,-293.65 50.41,-285.36 43,-252 37.49,-227.19 36.16,-197.64 33.56,-179.61"/>
</g>
<!-- 11 -->
<g id="node4" class="node">
<title>11</title>
<ellipse fill="none" stroke="black" cx="230" cy="-234" rx="27" ry="18"/>
<text text-anchor="middle" x="230" y="-230.3" font-family="Times,serif" font-size="14.00">11</text>
</g>
<!-- 3&#45;&gt;11 -->
<g id="edge4" class="edge">
<title>3&#45;&gt;11</title>
<path fill="none" stroke="purple" d="M110.73,-362.34C136.22,-335.13 190.56,-277.11 216.14,-249.79"/>
</g>
<!-- 8 -->
<g id="node5" class="node">
<title>8</title>
<ellipse fill="none" stroke="black" cx="70" cy="-234" rx="27" ry="18"/>
<text text-anchor="middle" x="70" y="-230.3" font-family="Times,serif" font-size="14.00">8</text>
</g>
<!-- 4&#45;&gt;8 -->
<g id="edge6" class="edge">
<title>4&#45;&gt;8</title>
<path fill="none" stroke="red" d="M90.6,-288.41C86.36,-277.41 80.81,-263.03 76.54,-251.96"/>
</g>
<!-- 15 -->
<g id="node6" class="node">
<title>15</title>
<ellipse fill="none" stroke="black" cx="175" cy="-162" rx="27" ry="18"/>
<text text-anchor="middle" x="175" y="-158.3" font-family="Times,serif" font-size="14.00">15</text>
</g>
<!-- 4&#45;&gt;15 -->
<g id="edge7" class="edge">
<title>4&#45;&gt;15</title>
<path fill="none" stroke="purple" d="M110.74,-290.08C119.61,-279.89 130.97,-265.8 139,-252 152.84,-228.23 163.79,-198.13 169.83,-179.73"/>
</g>
<!-- 19 -->
<g id="node7" class="node">
<title>19</title>
<ellipse fill="none" stroke="black" cx="152" cy="-90" rx="27" ry="18"/>
<text text-anchor="middle" x="152" y="-86.3" font-family="Times,serif" font-size="14.00">19</text>
</g>
<!-- 4&#45;&gt;19 -->
<g id="edge8" class="edge">
<title>4&#45;&gt;19</title>
<path fill="none" stroke="cyan" d="M101.32,-288.21C111.57,-248.3 137.32,-148.13 147.63,-108.01"/>
</g>
<!-- 20 -->
<g id="node8" class="node">
<title>20</title>
<ellipse fill="none" stroke="black" cx="207" cy="-18" rx="27" ry="18"/>
<text text-anchor="middle" x="207" y="-14.3" font-family="Times,serif" font-size="14.00">20</text>
</g>
<!-- 12&#45;&gt;20 -->
<g id="edge17" class="edge">
<title>12&#45;&gt;20</title>
<path fill="none" stroke="purple" d="M39.84,-145.95C56.28,-127.23 86.23,-94.94 116,-72 138.3,-54.82 166.7,-39.13 185.8,-29.35"/>
</g>
<!-- 11&#45;&gt;15 -->
<g id="edge15" class="edge">
<title>11&#45;&gt;15</title>
<path fill="none" stroke="green" d="M218.07,-217.81C208.84,-206.07 196.13,-189.89 186.91,-178.16"/>
</g>
<!-- 11&#45;&gt;19 -->
<g id="edge13" class="edge">
<title>11&#45;&gt;19</title>
<path fill="none" stroke="black" d="M229.45,-215.81C228.18,-197.01 224.06,-166.56 211,-144 201.21,-127.08 184.12,-112.62 170.85,-103.1"/>
</g>
<!-- 11&#45;&gt;20 -->
<g id="edge14" class="edge">
<title>11&#45;&gt;20</title>
<path fill="none" stroke="red" d="M222.63,-216.29C221.62,-205.86 221.89,-192.15 222,-180 222.15,-164 223.52,-159.93 222,-144 218.3,-105.06 208.24,-60.21 205.36,-36.24"/>
</g>
<!-- 11&#45;&gt;20 -->
<g id="edge16" class="edge">
<title>11&#45;&gt;20</title>
<path fill="none" stroke="cyan" d="M238.09,-216.76C239.62,-206.27 239.88,-192.33 240,-180 240.15,-164 241.52,-159.93 240,-144 236.23,-104.4 225.9,-58.69 216.97,-35.04"/>
</g>
<!-- 8&#45;&gt;12 -->
<g id="edge9" class="edge">
<title>8&#45;&gt;12</title>
<path fill="none" stroke="black" d="M55.5,-218.5C47.17,-207.28 37.52,-191.74 31.53,-179.95"/>
</g>
<!-- 8&#45;&gt;12 -->
<g id="edge10" class="edge">
<title>8&#45;&gt;12</title>
<path fill="none" stroke="green" d="M65.47,-216.05C59.47,-204.24 49.79,-188.64 41.44,-177.42"/>
</g>
<!-- 8&#45;&gt;15 -->
<g id="edge12" class="edge">
<title>8&#45;&gt;15</title>
<path fill="none" stroke="cyan" d="M88.77,-220.49C107.88,-207.74 137.34,-188.11 156.39,-175.41"/>
</g>
<!-- 8&#45;&gt;19 -->
<g id="edge11" class="edge">
<title>8&#45;&gt;19</title>
<path fill="none" stroke="purple" d="M74.97,-216.15C80.83,-197.65 91.63,-167.45 106,-144 114.78,-129.66 127.46,-115.38 137.29,-105.26"/>
</g>
<!-- 15&#45;&gt;19 -->
<g id="edge19" class="edge">
<title>15&#45;&gt;19</title>
<path fill="none" stroke="red" d="M169.43,-144.05C165.82,-133.05 161.12,-118.76 157.52,-107.79"/>
</g>
<!-- 15&#45;&gt;20 -->
<g id="edge18" class="edge">
<title>15&#45;&gt;20</title>
<path fill="none" stroke="black" d="M179.35,-143.85C181.94,-133.48 185.25,-120 188,-108 193.72,-83.05 199.81,-54.04 203.51,-36.1"/>
</g>
<!-- 19&#45;&gt;20 -->
<g id="edge20" class="edge">
<title>19&#45;&gt;20</title>
<path fill="none" stroke="green" d="M163.93,-73.81C173.16,-62.07 185.87,-45.89 195.09,-34.16"/>
</g>
</g>
</svg>
