<?xml version="1.0" encoding="UTF-8" standalone="no"?>
<!DOCTYPE svg PUBLIC "-//W3C//DTD SVG 1.1//EN"
 "http://www.w3.org/Graphics/SVG/1.1/DTD/svg11.dtd">
<!-- Generated by graphviz version 2.43.0 (0)
 -->
<!-- Title: G Pages: 1 -->
<svg width="962pt" height="404pt"
 viewBox="0.00 0.00 962.00 404.00" xmlns="http://www.w3.org/2000/svg" xmlns:xlink="http://www.w3.org/1999/xlink">
<g id="graph0" class="graph" transform="scale(1 1) rotate(0) translate(4 400)">
<title>G</title>
<polygon fill="white" stroke="transparent" points="-4,4 -4,-400 958,-400 958,4 -4,4"/>
<!-- 0 -->
<g id="node1" class="node">
<title>0</title>
<ellipse fill="none" stroke="black" cx="27" cy="-378" rx="27" ry="18"/>
<text text-anchor="middle" x="27" y="-374.3" font-family="Times,serif" font-size="14.00">0</text>
</g>
<!-- 0&#45;&gt;0 -->
<g id="edge1" class="edge">
<title>0&#45;&gt;0</title>
<path fill="none" stroke="black" d="M53.35,-382.48C63.53,-382.68 72,-381.19 72,-378 72,-374.81 63.53,-373.32 53.35,-373.52"/>
</g>
<!-- 0&#45;&gt;0 -->
<g id="edge2" class="edge">
<title>0&#45;&gt;0</title>
<path fill="none" stroke="red" d="M51.57,-385.84C70.6,-388.77 90,-386.16 90,-378 90,-369.84 70.6,-367.23 51.57,-370.16"/>
</g>
<!-- 0&#45;&gt;0 -->
<g id="edge3" class="edge">
<title>0&#45;&gt;0</title>
<path fill="none" stroke="green" d="M49.8,-387.8C76.67,-394.98 108,-391.71 108,-378 108,-364.29 76.67,-361.02 49.8,-368.2"/>
</g>
<!-- 23 -->
<g id="node2" class="node">
<title>23</title>
<ellipse fill="none" stroke="black" cx="35" cy="-162" rx="27" ry="18"/>
<text text-anchor="middle" x="35" y="-158.3" font-family="Times,serif" font-size="14.00">23</text>
</g>
<!-- 0&#45;&gt;23 -->
<g id="edge4" class="edge">
<title>0&#45;&gt;23</title>
<path fill="none" stroke="purple" d="M23.35,-359.91C21.32,-349.57 19.02,-336.09 18,-324 13.97,-276.17 10.58,-263.42 18,-216 19.94,-203.59 24.3,-190.12 28.11,-179.86"/>
</g>
<!-- 7 -->
<g id="node3" class="node">
<title>7</title>
<ellipse fill="none" stroke="black" cx="54" cy="-306" rx="27" ry="18"/>
<text text-anchor="middle" x="54" y="-302.3" font-family="Times,serif" font-size="14.00">7</text>
</g>
<!-- 0&#45;&gt;7 -->
<g id="edge5" class="edge">
<title>0&#45;&gt;7</title>
<path fill="none" stroke="cyan" d="M33.4,-360.41C37.64,-349.41 43.19,-335.03 47.46,-323.96"/>
</g>
<!-- 23&#45;&gt;23 -->
<g id="edge69" class="edge">
<title>23&#45;&gt;23</title>
<path fill="none" stroke="black" d="M61.35,-166.48C71.53,-166.68 80,-165.19 80,-162 80,-158.81 71.53,-157.32 61.35,-157.52"/>
</g>
<!-- 23&#45;&gt;23 -->
<g id="edge70" class="edge">
<title>23&#45;&gt;23</title>
<path fill="none" stroke="red" d="M59.57,-169.84C78.6,-172.77 98,-170.16 98,-162 98,-153.84 78.6,-151.23 59.57,-154.16"/>
</g>
<!-- 23&#45;&gt;23 -->
<g id="edge71" class="edge">
<title>23&#45;&gt;23</title>
<path fill="none" stroke="green" d="M57.8,-171.8C84.67,-178.98 116,-175.71 116,-162 116,-148.29 84.67,-145.02 57.8,-152.2"/>
</g>
<!-- 7&#45;&gt;7 -->
<g id="edge31" class="edge">
<title>7&#45;&gt;7</title>
<path fill="none" stroke="black" d="M79.44,-312.69C90.03,-313.15 99,-310.92 99,-306 99,-301.08 90.03,-298.85 79.44,-299.31"/>
</g>
<!-- 7&#45;&gt;7 -->
<g id="edge32" class="edge">
<title>7&#45;&gt;7</title>
<path fill="none" stroke="red" d="M75.63,-317.01C95.54,-322.54 117,-318.87 117,-306 117,-293.13 95.54,-289.46 75.63,-294.99"/>
</g>
<!-- 16 -->
<g id="node22" class="node">
<title>16</title>
<ellipse fill="none" stroke="black" cx="54" cy="-234" rx="27" ry="18"/>
<text text-anchor="middle" x="54" y="-230.3" font-family="Times,serif" font-size="14.00">16</text>
</g>
<!-- 7&#45;&gt;16 -->
<g id="edge33" class="edge">
<title>7&#45;&gt;16</title>
<path fill="none" stroke="green" d="M48.16,-288.41C46.96,-277.41 46.95,-263.03 48.12,-251.96"/>
</g>
<!-- 7&#45;&gt;16 -->
<g id="edge34" class="edge">
<title>7&#45;&gt;16</title>
<path fill="none" stroke="purple" d="M59.84,-288.41C61.04,-277.41 61.05,-263.03 59.88,-251.96"/>
</g>
<!-- 1 -->
<g id="node4" class="node">
<title>1</title>
<ellipse fill="none" stroke="black" cx="229" cy="-378" rx="27" ry="18"/>
<text text-anchor="middle" x="229" y="-374.3" font-family="Times,serif" font-size="14.00">1</text>
</g>
<!-- 1&#45;&gt;1 -->
<g id="edge6" class="edge">
<title>1&#45;&gt;1</title>
<path fill="none" stroke="black" d="M248.9,-390.43C261.69,-393.68 274,-389.53 274,-378 274,-366.47 261.69,-362.32 248.9,-365.57"/>
</g>
<!-- 6 -->
<g id="node5" class="node">
<title>6</title>
<ellipse fill="none" stroke="black" cx="162" cy="-234" rx="27" ry="18"/>
<text text-anchor="middle" x="162" y="-230.3" font-family="Times,serif" font-size="14.00">6</text>
</g>
<!-- 1&#45;&gt;6 -->
<g id="edge7" class="edge">
<title>1&#45;&gt;6</title>
<path fill="none" stroke="red" d="M217.3,-361.53C201.62,-334.79 175.75,-280.11 165.53,-252.21"/>
</g>
<!-- 1&#45;&gt;6 -->
<g id="edge10" class="edge">
<title>1&#45;&gt;6</title>
<path fill="none" stroke="cyan" d="M225.5,-359.87C215.29,-331.99 189.39,-277.21 173.69,-250.45"/>
</g>
<!-- 5 -->
<g id="node6" class="node">
<title>5</title>
<ellipse fill="none" stroke="black" cx="261" cy="-306" rx="27" ry="18"/>
<text text-anchor="middle" x="261" y="-302.3" font-family="Times,serif" font-size="14.00">5</text>
</g>
<!-- 1&#45;&gt;5 -->
<g id="edge8" class="edge">
<title>1&#45;&gt;5</title>
<path fill="none" stroke="green" d="M236.58,-360.41C241.68,-349.25 248.38,-334.6 253.47,-323.47"/>
</g>
<!-- 17 -->
<g id="node7" class="node">
<title>17</title>
<ellipse fill="none" stroke="black" cx="402" cy="-90" rx="27" ry="18"/>
<text text-anchor="middle" x="402" y="-86.3" font-family="Times,serif" font-size="14.00">17</text>
</g>
<!-- 1&#45;&gt;17 -->
<g id="edge9" class="edge">
<title>1&#45;&gt;17</title>
<path fill="none" stroke="purple" d="M251.49,-367.88C288.9,-351.3 362.61,-312.25 391,-252 413.69,-203.85 408.76,-138.48 404.71,-107.98"/>
</g>
<!-- 6&#45;&gt;6 -->
<g id="edge28" class="edge">
<title>6&#45;&gt;6</title>
<path fill="none" stroke="black" d="M181.9,-246.43C194.69,-249.68 207,-245.53 207,-234 207,-222.47 194.69,-218.32 181.9,-221.57"/>
</g>
<!-- 14 -->
<g id="node18" class="node">
<title>14</title>
<ellipse fill="none" stroke="black" cx="273" cy="-162" rx="27" ry="18"/>
<text text-anchor="middle" x="273" y="-158.3" font-family="Times,serif" font-size="14.00">14</text>
</g>
<!-- 6&#45;&gt;14 -->
<g id="edge29" class="edge">
<title>6&#45;&gt;14</title>
<path fill="none" stroke="green" d="M181.08,-220.97C201.41,-208.15 233.42,-187.96 253.8,-175.11"/>
</g>
<!-- 22 -->
<g id="node21" class="node">
<title>22</title>
<ellipse fill="none" stroke="black" cx="402" cy="-18" rx="27" ry="18"/>
<text text-anchor="middle" x="402" y="-14.3" font-family="Times,serif" font-size="14.00">22</text>
</g>
<!-- 6&#45;&gt;22 -->
<g id="edge30" class="edge">
<title>6&#45;&gt;22</title>
<path fill="none" stroke="purple" d="M171.17,-216.95C190.16,-185.05 236.81,-113.2 294,-72 320.94,-52.59 356.08,-36.84 378.84,-27.7"/>
</g>
<!-- 5&#45;&gt;5 -->
<g id="edge24" class="edge">
<title>5&#45;&gt;5</title>
<path fill="none" stroke="black" d="M280.9,-318.43C293.69,-321.68 306,-317.53 306,-306 306,-294.47 293.69,-290.32 280.9,-293.57"/>
</g>
<!-- 5&#45;&gt;14 -->
<g id="edge25" class="edge">
<title>5&#45;&gt;14</title>
<path fill="none" stroke="red" d="M262.45,-287.87C264.75,-260.58 269.24,-207.52 271.55,-180.19"/>
</g>
<!-- 9 -->
<g id="node19" class="node">
<title>9</title>
<ellipse fill="none" stroke="black" cx="355" cy="-234" rx="27" ry="18"/>
<text text-anchor="middle" x="355" y="-230.3" font-family="Times,serif" font-size="14.00">9</text>
</g>
<!-- 5&#45;&gt;9 -->
<g id="edge26" class="edge">
<title>5&#45;&gt;9</title>
<path fill="none" stroke="purple" d="M278.68,-291.83C295.59,-279.24 320.94,-260.37 337.72,-247.87"/>
</g>
<!-- 18 -->
<g id="node20" class="node">
<title>18</title>
<ellipse fill="none" stroke="black" cx="330" cy="-90" rx="27" ry="18"/>
<text text-anchor="middle" x="330" y="-86.3" font-family="Times,serif" font-size="14.00">18</text>
</g>
<!-- 5&#45;&gt;18 -->
<g id="edge27" class="edge">
<title>5&#45;&gt;18</title>
<path fill="none" stroke="cyan" d="M252.14,-288.64C236.87,-258.02 209.74,-190.91 237,-144 251.57,-118.93 282.91,-104.74 305.18,-97.47"/>
</g>
<!-- 17&#45;&gt;22 -->
<g id="edge61" class="edge">
<title>17&#45;&gt;22</title>
<path fill="none" stroke="black" d="M390.56,-73.46C387.81,-61.86 387.81,-46.08 390.57,-34.49"/>
</g>
<!-- 17&#45;&gt;22 -->
<g id="edge62" class="edge">
<title>17&#45;&gt;22</title>
<path fill="none" stroke="red" d="M402,-71.7C402,-60.85 402,-46.92 402,-36.1"/>
</g>
<!-- 17&#45;&gt;22 -->
<g id="edge63" class="edge">
<title>17&#45;&gt;22</title>
<path fill="none" stroke="cyan" d="M413.44,-73.46C416.19,-61.86 416.19,-46.08 413.43,-34.49"/>
</g>
<!-- 2 -->
<g id="node8" class="node">
<title>2</title>
<ellipse fill="none" stroke="black" cx="495" cy="-378" rx="27" ry="18"/>
<text text-anchor="middle" x="495" y="-374.3" font-family="Times,serif" font-size="14.00">2</text>
</g>
<!-- 2&#45;&gt;2 -->
<g id="edge11" class="edge">
<title>2&#45;&gt;2</title>
<path fill="none" stroke="black" d="M521.35,-382.48C531.53,-382.68 540,-381.19 540,-378 540,-374.81 531.53,-373.32 521.35,-373.52"/>
</g>
<!-- 2&#45;&gt;2 -->
<g id="edge12" class="edge">
<title>2&#45;&gt;2</title>
<path fill="none" stroke="red" d="M519.57,-385.84C538.6,-388.77 558,-386.16 558,-378 558,-369.84 538.6,-367.23 519.57,-370.16"/>
</g>
<!-- 2&#45;&gt;2 -->
<g id="edge13" class="edge">
<title>2&#45;&gt;2</title>
<path fill="none" stroke="green" d="M517.8,-387.8C544.67,-394.98 576,-391.71 576,-378 576,-364.29 544.67,-361.02 517.8,-368.2"/>
</g>
<!-- 21 -->
<g id="node9" class="node">
<title>21</title>
<ellipse fill="none" stroke="black" cx="495" cy="-306" rx="27" ry="18"/>
<text text-anchor="middle" x="495" y="-302.3" font-family="Times,serif" font-size="14.00">21</text>
</g>
<!-- 2&#45;&gt;21 -->
<g id="edge14" class="edge">
<title>2&#45;&gt;21</title>
<path fill="none" stroke="purple" d="M495,-359.7C495,-348.85 495,-334.92 495,-324.1"/>
</g>
<!-- 13 -->
<g id="node10" class="node">
<title>13</title>
<ellipse fill="none" stroke="black" cx="621" cy="-306" rx="27" ry="18"/>
<text text-anchor="middle" x="621" y="-302.3" font-family="Times,serif" font-size="14.00">13</text>
</g>
<!-- 2&#45;&gt;13 -->
<g id="edge15" class="edge">
<title>2&#45;&gt;13</title>
<path fill="none" stroke="cyan" d="M515.24,-365.75C538.76,-352.69 577.31,-331.27 600.81,-318.22"/>
</g>
<!-- 21&#45;&gt;21 -->
<g id="edge66" class="edge">
<title>21&#45;&gt;21</title>
<path fill="none" stroke="black" d="M521.35,-310.48C531.53,-310.68 540,-309.19 540,-306 540,-302.81 531.53,-301.32 521.35,-301.52"/>
</g>
<!-- 21&#45;&gt;21 -->
<g id="edge67" class="edge">
<title>21&#45;&gt;21</title>
<path fill="none" stroke="red" d="M519.57,-313.84C538.6,-316.77 558,-314.16 558,-306 558,-297.84 538.6,-295.23 519.57,-298.16"/>
</g>
<!-- 21&#45;&gt;21 -->
<g id="edge68" class="edge">
<title>21&#45;&gt;21</title>
<path fill="none" stroke="green" d="M517.8,-315.8C544.67,-322.98 576,-319.71 576,-306 576,-292.29 544.67,-289.02 517.8,-296.2"/>
</g>
<!-- 13&#45;&gt;13 -->
<g id="edge53" class="edge">
<title>13&#45;&gt;13</title>
<path fill="none" stroke="red" d="M640.9,-318.43C653.69,-321.68 666,-317.53 666,-306 666,-294.47 653.69,-290.32 640.9,-293.57"/>
</g>
<!-- 3 -->
<g id="node11" class="node">
<title>3</title>
<ellipse fill="none" stroke="black" cx="794" cy="-378" rx="27" ry="18"/>
<text text-anchor="middle" x="794" y="-374.3" font-family="Times,serif" font-size="14.00">3</text>
</g>
<!-- 4 -->
<g id="node12" class="node">
<title>4</title>
<ellipse fill="none" stroke="black" cx="794" cy="-306" rx="27" ry="18"/>
<text text-anchor="middle" x="794" y="-302.3" font-family="Times,serif" font-size="14.00">4</text>
</g>
<!-- 3&#45;&gt;4 -->
<g id="edge16" class="edge">
<title>3&#45;&gt;4</title>
<path fill="none" stroke="black" d="M788.16,-360.41C786.96,-349.41 786.95,-335.03 788.12,-323.96"/>
</g>
<!-- 3&#45;&gt;4 -->
<g id="edge18" class="edge">
<title>3&#45;&gt;4</title>
<path fill="none" stroke="green" d="M799.84,-360.41C801.04,-349.41 801.05,-335.03 799.88,-323.96"/>
</g>
<!-- 12 -->
<g id="node13" class="node">
<title>12</title>
<ellipse fill="none" stroke="black" cx="724" cy="-162" rx="27" ry="18"/>
<text text-anchor="middle" x="724" y="-158.3" font-family="Times,serif" font-size="14.00">12</text>
</g>
<!-- 3&#45;&gt;12 -->
<g id="edge17" class="edge">
<title>3&#45;&gt;12</title>
<path fill="none" stroke="red" d="M776.58,-364.04C767.13,-353.63 756.47,-338.42 749,-324 733.29,-293.65 729.41,-285.36 722,-252 716.49,-227.19 715.16,-197.64 717.29,-179.61"/>
</g>
<!-- 3&#45;&gt;12 -->
<g id="edge20" class="edge">
<title>3&#45;&gt;12</title>
<path fill="none" stroke="cyan" d="M788.78,-359.98C782.55,-349.89 773.55,-336.64 767,-324 751.29,-293.65 747.41,-285.36 740,-252 734.49,-227.19 733.16,-197.64 730.56,-179.61"/>
</g>
<!-- 11 -->
<g id="node14" class="node">
<title>11</title>
<ellipse fill="none" stroke="black" cx="927" cy="-234" rx="27" ry="18"/>
<text text-anchor="middle" x="927" y="-230.3" font-family="Times,serif" font-size="14.00">11</text>
</g>
<!-- 3&#45;&gt;11 -->
<g id="edge19" class="edge">
<title>3&#45;&gt;11</title>
<path fill="none" stroke="purple" d="M807.73,-362.34C833.22,-335.13 887.56,-277.11 913.14,-249.79"/>
</g>
<!-- 8 -->
<g id="node15" class="node">
<title>8</title>
<ellipse fill="none" stroke="black" cx="767" cy="-234" rx="27" ry="18"/>
<text text-anchor="middle" x="767" y="-230.3" font-family="Times,serif" font-size="14.00">8</text>
</g>
<!-- 4&#45;&gt;8 -->
<g id="edge21" class="edge">
<title>4&#45;&gt;8</title>
<path fill="none" stroke="red" d="M787.6,-288.41C783.36,-277.41 777.81,-263.03 773.54,-251.96"/>
</g>
<!-- 15 -->
<g id="node16" class="node">
<title>15</title>
<ellipse fill="none" stroke="black" cx="872" cy="-162" rx="27" ry="18"/>
<text text-anchor="middle" x="872" y="-158.3" font-family="Times,serif" font-size="14.00">15</text>
</g>
<!-- 4&#45;&gt;15 -->
<g id="edge22" class="edge">
<title>4&#45;&gt;15</title>
<path fill="none" stroke="purple" d="M807.74,-290.08C816.61,-279.89 827.97,-265.8 836,-252 849.84,-228.23 860.79,-198.13 866.83,-179.73"/>
</g>
<!-- 19 -->
<g id="node17" class="node">
<title>19</title>
<ellipse fill="none" stroke="black" cx="849" cy="-90" rx="27" ry="18"/>
<text text-anchor="middle" x="849" y="-86.3" font-family="Times,serif" font-size="14.00">19</text>
</g>
<!-- 4&#45;&gt;19 -->
<g id="edge23" class="edge">
<title>4&#45;&gt;19</title>
<path fill="none" stroke="cyan" d="M798.32,-288.21C808.57,-248.3 834.32,-148.13 844.63,-108.01"/>
</g>
<!-- 20 -->
<g id="node24" class="node">
<title>20</title>
<ellipse fill="none" stroke="black" cx="904" cy="-18" rx="27" ry="18"/>
<text text-anchor="middle" x="904" y="-14.3" font-family="Times,serif" font-size="14.00">20</text>
</g>
<!-- 12&#45;&gt;20 -->
<g id="edge52" class="edge">
<title>12&#45;&gt;20</title>
<path fill="none" stroke="purple" d="M736.84,-145.95C753.28,-127.23 783.23,-94.94 813,-72 835.3,-54.82 863.7,-39.13 882.8,-29.35"/>
</g>
<!-- 11&#45;&gt;15 -->
<g id="edge50" class="edge">
<title>11&#45;&gt;15</title>
<path fill="none" stroke="green" d="M915.07,-217.81C905.84,-206.07 893.13,-189.89 883.91,-178.16"/>
</g>
<!-- 11&#45;&gt;19 -->
<g id="edge48" class="edge">
<title>11&#45;&gt;19</title>
<path fill="none" stroke="black" d="M926.45,-215.81C925.18,-197.01 921.06,-166.56 908,-144 898.21,-127.08 881.12,-112.62 867.85,-103.1"/>
</g>
<!-- 11&#45;&gt;20 -->
<g id="edge49" class="edge">
<title>11&#45;&gt;20</title>
<path fill="none" stroke="red" d="M919.63,-216.29C918.62,-205.86 918.89,-192.15 919,-180 919.15,-164 920.52,-159.93 919,-144 915.3,-105.06 905.24,-60.21 902.36,-36.24"/>
</g>
<!-- 11&#45;&gt;20 -->
<g id="edge51" class="edge">
<title>11&#45;&gt;20</title>
<path fill="none" stroke="cyan" d="M935.09,-216.76C936.62,-206.27 936.88,-192.33 937,-180 937.15,-164 938.52,-159.93 937,-144 933.23,-104.4 922.9,-58.69 913.97,-35.04"/>
</g>
<!-- 8&#45;&gt;12 -->
<g id="edge35" class="edge">
<title>8&#45;&gt;12</title>
<path fill="none" stroke="black" d="M752.5,-218.5C744.17,-207.28 734.52,-191.74 728.53,-179.95"/>
</g>
<!-- 8&#45;&gt;12 -->
<g id="edge36" class="edge">
<title>8&#45;&gt;12</title>
<path fill="none" stroke="green" d="M762.47,-216.05C756.47,-204.24 746.79,-188.64 738.44,-177.42"/>
</g>
<!-- 8&#45;&gt;15 -->
<g id="edge38" class="edge">
<title>8&#45;&gt;15</title>
<path fill="none" stroke="cyan" d="M785.77,-220.49C804.88,-207.74 834.34,-188.11 853.39,-175.41"/>
</g>
<!-- 8&#45;&gt;19 -->
<g id="edge37" class="edge">
<title>8&#45;&gt;19</title>
<path fill="none" stroke="purple" d="M771.97,-216.15C777.83,-197.65 788.63,-167.45 803,-144 811.78,-129.66 824.46,-115.38 834.29,-105.26"/>
</g>
<!-- 15&#45;&gt;19 -->
<g id="edge57" class="edge">
<title>15&#45;&gt;19</title>
<path fill="none" stroke="red" d="M866.43,-144.05C862.82,-133.05 858.12,-118.76 854.52,-107.79"/>
</g>
<!-- 15&#45;&gt;20 -->
<g id="edge56" class="edge">
<title>15&#45;&gt;20</title>
<path fill="none" stroke="black" d="M876.35,-143.85C878.94,-133.48 882.25,-120 885,-108 890.72,-83.05 896.81,-54.04 900.51,-36.1"/>
</g>
<!-- 19&#45;&gt;20 -->
<g id="edge65" class="edge">
<title>19&#45;&gt;20</title>
<path fill="none" stroke="green" d="M860.93,-73.81C870.16,-62.07 882.87,-45.89 892.09,-34.16"/>
</g>
<!-- 14&#45;&gt;14 -->
<g id="edge54" class="edge">
<title>14&#45;&gt;14</title>
<path fill="none" stroke="black" d="M292.9,-174.43C305.69,-177.68 318,-173.53 318,-162 318,-150.47 305.69,-146.32 292.9,-149.57"/>
</g>
<!-- 14&#45;&gt;18 -->
<g id="edge55" class="edge">
<title>14&#45;&gt;18</title>
<path fill="none" stroke="purple" d="M285.37,-145.81C294.93,-134.07 308.1,-117.89 317.66,-106.16"/>
</g>
<!-- 9&#45;&gt;17 -->
<g id="edge41" class="edge">
<title>9&#45;&gt;17</title>
<path fill="none" stroke="green" d="M360.58,-216.15C369.62,-188.82 387.39,-135.14 396.43,-107.82"/>
</g>
<!-- 9&#45;&gt;14 -->
<g id="edge42" class="edge">
<title>9&#45;&gt;14</title>
<path fill="none" stroke="cyan" d="M338.8,-219.17C324.33,-206.82 303.26,-188.83 288.89,-176.56"/>
</g>
<!-- 9&#45;&gt;18 -->
<g id="edge39" class="edge">
<title>9&#45;&gt;18</title>
<path fill="none" stroke="black" d="M347.56,-216.43C339.85,-189.36 330.42,-135.91 328.45,-108.35"/>
</g>
<!-- 9&#45;&gt;18 -->
<g id="edge40" class="edge">
<title>9&#45;&gt;18</title>
<path fill="none" stroke="red" d="M356.57,-215.87C354.64,-188.43 345.21,-134.95 337.49,-107.75"/>
</g>
<!-- 18&#45;&gt;22 -->
<g id="edge64" class="edge">
<title>18&#45;&gt;22</title>
<path fill="none" stroke="green" d="M344.57,-74.83C356.98,-62.77 374.73,-45.51 387.2,-33.38"/>
</g>
<!-- 16&#45;&gt;23 -->
<g id="edge60" class="edge">
<title>16&#45;&gt;23</title>
<path fill="none" stroke="cyan" d="M49.4,-216.05C46.41,-205.05 42.54,-190.76 39.56,-179.79"/>
</g>
<!-- 16&#45;&gt;16 -->
<g id="edge58" class="edge">
<title>16&#45;&gt;16</title>
<path fill="none" stroke="black" d="M79.44,-240.69C90.03,-241.15 99,-238.92 99,-234 99,-229.08 90.03,-226.85 79.44,-227.31"/>
</g>
<!-- 16&#45;&gt;16 -->
<g id="edge59" class="edge">
<title>16&#45;&gt;16</title>
<path fill="none" stroke="red" d="M75.63,-245.01C95.54,-250.54 117,-246.87 117,-234 117,-221.13 95.54,-217.46 75.63,-222.99"/>
</g>
<!-- 10 -->
<g id="node23" class="node">
<title>10</title>
<ellipse fill="none" stroke="black" cx="621" cy="-378" rx="27" ry="18"/>
<text text-anchor="middle" x="621" y="-374.3" font-family="Times,serif" font-size="14.00">10</text>
</g>
<!-- 10&#45;&gt;21 -->
<g id="edge47" class="edge">
<title>10&#45;&gt;21</title>
<path fill="none" stroke="cyan" d="M600.76,-365.75C577.24,-352.69 538.69,-331.27 515.19,-318.22"/>
</g>
<!-- 10&#45;&gt;13 -->
<g id="edge43" class="edge">
<title>10&#45;&gt;13</title>
<path fill="none" stroke="black" d="M609.56,-361.46C606.81,-349.86 606.81,-334.08 609.57,-322.49"/>
</g>
<!-- 10&#45;&gt;13 -->
<g id="edge45" class="edge">
<title>10&#45;&gt;13</title>
<path fill="none" stroke="green" d="M621,-359.7C621,-348.85 621,-334.92 621,-324.1"/>
</g>
<!-- 10&#45;&gt;13 -->
<g id="edge46" class="edge">
<title>10&#45;&gt;13</title>
<path fill="none" stroke="purple" d="M632.44,-361.46C635.19,-349.86 635.19,-334.08 632.43,-322.49"/>
</g>
<!-- 10&#45;&gt;10 -->
<g id="edge44" class="edge">
<title>10&#45;&gt;10</title>
<path fill="none" stroke="red" d="M640.9,-390.43C653.69,-393.68 666,-389.53 666,-378 666,-366.47 653.69,-362.32 640.9,-365.57"/>
</g>
</g>
</svg>
