<?xml version="1.0" encoding="UTF-8" standalone="no"?><!DOCTYPE svg PUBLIC "-//W3C//DTD SVG 1.1//EN" "http://www.w3.org/Graphics/SVG/1.1/DTD/svg11.dtd"><!-- Generated by graphviz version 2.40.1 (20161225.0304)
 --><!-- Title: G Pages: 1 --><svg xmlns="http://www.w3.org/2000/svg" xmlns:xlink="http://www.w3.org/1999/xlink" width="243pt" height="260pt" viewBox="0.00 0.00 243.00 260.00">
<g id="graph0" class="graph" transform="scale(1 1) rotate(0) translate(4 256)">
<title>G</title>
<polygon fill="#ffffff" stroke="transparent" points="-4,4 -4,-256 239,-256 239,4 -4,4"/>
<!-- 2 -->
<g id="node1" class="node">
<title>2</title>
<ellipse fill="none" stroke="#000000" cx="101" cy="-234" rx="27" ry="18"/>
<text text-anchor="middle" x="101" y="-229.8" font-family="Times,serif" font-size="14.00" fill="#000000">2</text>
</g>
<!-- 2&#45;&gt;2 -->
<g id="edge1" class="edge">
<title>2-&gt;2</title>
<path fill="none" stroke="#000000" d="M127.3466,-238.4824C137.5332,-238.6816 146,-237.1875 146,-234 146,-230.8125 137.5332,-229.3184 127.3466,-229.5176"/>
</g>
<!-- 2&#45;&gt;2 -->
<g id="edge2" class="edge">
<title>2-&gt;2</title>
<path fill="none" stroke="#ff0000" d="M125.5731,-241.8376C144.597,-244.7688 164,-242.1563 164,-234 164,-225.8438 144.597,-223.2312 125.5731,-226.1624"/>
</g>
<!-- 2&#45;&gt;2 -->
<g id="edge3" class="edge">
<title>2-&gt;2</title>
<path fill="none" stroke="#00ff00" d="M123.8039,-243.8012C150.6684,-250.978 182,-247.7109 182,-234 182,-220.2891 150.6684,-217.022 123.8039,-224.1988"/>
</g>
<!-- 10 -->
<g id="node2" class="node">
<title>10</title>
<ellipse fill="none" stroke="#000000" cx="101" cy="-162" rx="27" ry="18"/>
<text text-anchor="middle" x="101" y="-157.8" font-family="Times,serif" font-size="14.00" fill="#000000">10</text>
</g>
<!-- 2&#45;&gt;10 -->
<g id="edge4" class="edge">
<title>2-&gt;10</title>
<path fill="none" stroke="#000000" d="M89.4784,-217.6621C86.8729,-206.0448 86.8409,-190.4869 89.3824,-178.7729"/>
</g>
<!-- 2&#45;&gt;10 -->
<g id="edge5" class="edge">
<title>2-&gt;10</title>
<path fill="none" stroke="#ff0000" d="M101,-215.8314C101,-205 101,-191.2876 101,-180.4133"/>
</g>
<!-- 2&#45;&gt;10 -->
<g id="edge6" class="edge">
<title>2-&gt;10</title>
<path fill="none" stroke="#00ff00" d="M112.5216,-217.6621C115.1271,-206.0448 115.1591,-190.4869 112.6176,-178.7729"/>
</g>
<!-- 13 -->
<g id="node3" class="node">
<title>13</title>
<ellipse fill="none" stroke="#000000" cx="27" cy="-90" rx="27" ry="18"/>
<text text-anchor="middle" x="27" y="-85.8" font-family="Times,serif" font-size="14.00" fill="#000000">13</text>
</g>
<!-- 2&#45;&gt;13 -->
<g id="edge7" class="edge">
<title>2-&gt;13</title>
<path fill="none" stroke="#000000" d="M79.1534,-223.2101C67.1729,-212.5717 55.4373,-195.676 47,-180 33.8975,-155.6562 22.0746,-125.8258 19.8601,-107.3648"/>
</g>
<!-- 2&#45;&gt;13 -->
<g id="edge8" class="edge">
<title>2-&gt;13</title>
<path fill="none" stroke="#ff0000" d="M88.8049,-217.4832C81.3999,-207.0441 72.0489,-193.0964 65,-180 51.9779,-155.8056 40.2197,-126.1916 33.3406,-107.7058"/>
</g>
<!-- 2&#45;&gt;13 -->
<g id="edge9" class="edge">
<title>2-&gt;13</title>
<path fill="none" stroke="#00ff00" d="M103.6373,-216.0384C98.5545,-205.7779 89.7284,-192.5012 83,-180 69.0937,-154.1627 56.6288,-122.1449 44.4528,-104.0993"/>
</g>
<!-- 21 -->
<g id="node4" class="node">
<title>21</title>
<ellipse fill="none" stroke="#000000" cx="154" cy="-18" rx="27" ry="18"/>
<text text-anchor="middle" x="154" y="-13.8" font-family="Times,serif" font-size="14.00" fill="#000000">21</text>
</g>
<!-- 2&#45;&gt;21 -->
<g id="edge10" class="edge">
<title>2-&gt;21</title>
<path fill="none" stroke="#000000" d="M121.6313,-222.2223C139.0084,-213.7964 161.5084,-200.2964 173,-180 199.7223,-132.8033 167.2419,-67.5591 155.2302,-36.2281"/>
</g>
<!-- 2&#45;&gt;21 -->
<g id="edge11" class="edge">
<title>2-&gt;21</title>
<path fill="none" stroke="#ff0000" d="M125.893,-226.7432C147.4136,-219.0003 177.1742,-204.4191 191,-180 218.1487,-132.0502 184.1902,-65.4722 165.1954,-34.7544"/>
</g>
<!-- 2&#45;&gt;21 -->
<g id="edge12" class="edge">
<title>2-&gt;21</title>
<path fill="none" stroke="#00ff00" d="M127.5568,-230.0946C154.9103,-223.6435 192.8399,-208.5418 209,-180 237.1437,-130.2929 199.619,-60.5672 172.8429,-31.5242"/>
</g>
<!-- 10&#45;&gt;10 -->
<g id="edge13" class="edge">
<title>10-&gt;10</title>
<path fill="none" stroke="#000000" d="M127.3466,-166.4824C137.5332,-166.6816 146,-165.1875 146,-162 146,-158.8125 137.5332,-157.3184 127.3466,-157.5176"/>
</g>
<!-- 10&#45;&gt;10 -->
<g id="edge14" class="edge">
<title>10-&gt;10</title>
<path fill="none" stroke="#ff0000" d="M125.5731,-169.8376C144.597,-172.7688 164,-170.1563 164,-162 164,-153.8438 144.597,-151.2312 125.5731,-154.1624"/>
</g>
<!-- 10&#45;&gt;10 -->
<g id="edge15" class="edge">
<title>10-&gt;10</title>
<path fill="none" stroke="#00ff00" d="M123.8039,-171.8012C150.6684,-178.978 182,-175.7109 182,-162 182,-148.2891 150.6684,-145.022 123.8039,-152.1988"/>
</g>
<!-- 10&#45;&gt;13 -->
<g id="edge16" class="edge">
<title>10-&gt;13</title>
<path fill="none" stroke="#000000" d="M79.3125,-150.75C63.5933,-139.2012 44.3978,-121.0659 33.3083,-107.6132"/>
</g>
<!-- 10&#45;&gt;13 -->
<g id="edge17" class="edge">
<title>10-&gt;13</title>
<path fill="none" stroke="#ff0000" d="M85.6672,-147.0816C72.9669,-134.7246 55.008,-117.251 42.3132,-104.8993"/>
</g>
<!-- 10&#45;&gt;13 -->
<g id="edge18" class="edge">
<title>10-&gt;13</title>
<path fill="none" stroke="#00ff00" d="M94.5393,-144.2022C83.3783,-130.7099 64.1679,-112.5884 48.4825,-101.0996"/>
</g>
<!-- 10&#45;&gt;21 -->
<g id="edge19" class="edge">
<title>10-&gt;21</title>
<path fill="none" stroke="#000000" d="M98.3177,-144.0535C103.022,-115.5545 123.4845,-60.4294 139.5179,-33.527"/>
</g>
<!-- 10&#45;&gt;21 -->
<g id="edge20" class="edge">
<title>10-&gt;21</title>
<path fill="none" stroke="#ff0000" d="M107.4988,-144.3428C117.671,-116.7053 137.2432,-63.5278 147.448,-35.8017"/>
</g>
<!-- 10&#45;&gt;21 -->
<g id="edge21" class="edge">
<title>10-&gt;21</title>
<path fill="none" stroke="#00ff00" d="M115.4127,-146.5895C131.4478,-119.7442 151.9495,-64.5452 156.6748,-35.9919"/>
</g>
<!-- 13&#45;&gt;13 -->
<g id="edge22" class="edge">
<title>13-&gt;13</title>
<path fill="none" stroke="#000000" d="M53.3466,-94.4824C63.5332,-94.6816 72,-93.1875 72,-90 72,-86.8125 63.5332,-85.3184 53.3466,-85.5176"/>
</g>
<!-- 13&#45;&gt;13 -->
<g id="edge23" class="edge">
<title>13-&gt;13</title>
<path fill="none" stroke="#ff0000" d="M51.5731,-97.8376C70.597,-100.7688 90,-98.1563 90,-90 90,-81.8438 70.597,-79.2312 51.5731,-82.1624"/>
</g>
<!-- 13&#45;&gt;13 -->
<g id="edge24" class="edge">
<title>13-&gt;13</title>
<path fill="none" stroke="#00ff00" d="M49.8039,-99.8012C76.6684,-106.978 108,-103.7109 108,-90 108,-76.2891 76.6684,-73.022 49.8039,-80.1988"/>
</g>
<!-- 13&#45;&gt;21 -->
<g id="edge25" class="edge">
<title>13-&gt;21</title>
<path fill="none" stroke="#000000" d="M42.129,-75.0816C64.33,-60.4179 103.59,-38.5493 129.7312,-26.5844"/>
</g>
<!-- 13&#45;&gt;21 -->
<g id="edge26" class="edge">
<title>13-&gt;21</title>
<path fill="none" stroke="#ff0000" d="M47.6874,-78.2717C71.3038,-64.8829 109.7087,-43.11 133.3215,-29.7233"/>
</g>
<!-- 13&#45;&gt;21 -->
<g id="edge27" class="edge">
<title>13-&gt;21</title>
<path fill="none" stroke="#00ff00" d="M51.1763,-81.4579C77.2395,-69.5379 116.4098,-47.7296 138.6721,-33.0497"/>
</g>
<!-- 21&#45;&gt;21 -->
<g id="edge28" class="edge">
<title>21-&gt;21</title>
<path fill="none" stroke="#000000" d="M180.3466,-22.4824C190.5332,-22.6816 199,-21.1875 199,-18 199,-14.8125 190.5332,-13.3184 180.3466,-13.5176"/>
</g>
<!-- 21&#45;&gt;21 -->
<g id="edge29" class="edge">
<title>21-&gt;21</title>
<path fill="none" stroke="#ff0000" d="M178.5731,-25.8376C197.597,-28.7688 217,-26.1563 217,-18 217,-9.8438 197.597,-7.2312 178.5731,-10.1624"/>
</g>
<!-- 21&#45;&gt;21 -->
<g id="edge30" class="edge">
<title>21-&gt;21</title>
<path fill="none" stroke="#00ff00" d="M176.8039,-27.8012C203.6684,-34.978 235,-31.7109 235,-18 235,-4.2891 203.6684,-1.022 176.8039,-8.1988"/>
</g>
</g>
</svg>