<?xml version="1.0" encoding="UTF-8" standalone="no"?><!DOCTYPE svg PUBLIC "-//W3C//DTD SVG 1.1//EN" "http://www.w3.org/Graphics/SVG/1.1/DTD/svg11.dtd"><!-- Generated by graphviz version 2.40.1 (20161225.0304)
 --><!-- Title: G Pages: 1 --><svg xmlns="http://www.w3.org/2000/svg" xmlns:xlink="http://www.w3.org/1999/xlink" width="134pt" height="188pt" viewBox="0.00 0.00 134.00 188.00">
<g id="graph0" class="graph" transform="scale(1 1) rotate(0) translate(4 184)">
<title>G</title>
<polygon fill="#ffffff" stroke="transparent" points="-4,4 -4,-184 130,-184 130,4 -4,4"/>
<!-- 9 -->
<g id="node1" class="node">
<title>9</title>
<ellipse fill="none" stroke="#000000" cx="99" cy="-162" rx="27" ry="18"/>
<text text-anchor="middle" x="99" y="-157.8" font-family="Times,serif" font-size="14.00" fill="#000000">9</text>
</g>
<!-- 17 -->
<g id="node2" class="node">
<title>17</title>
<ellipse fill="none" stroke="#000000" cx="27" cy="-90" rx="27" ry="18"/>
<text text-anchor="middle" x="27" y="-85.8" font-family="Times,serif" font-size="14.00" fill="#000000">17</text>
</g>
<!-- 9&#45;&gt;17 -->
<g id="edge1" class="edge">
<title>9-&gt;17</title>
<path fill="none" stroke="#00ff00" d="M83.7307,-146.7307C71.512,-134.512 54.4602,-117.4602 42.2473,-105.2473"/>
</g>
<!-- 18 -->
<g id="node3" class="node">
<title>18</title>
<ellipse fill="none" stroke="#000000" cx="99" cy="-90" rx="27" ry="18"/>
<text text-anchor="middle" x="99" y="-85.8" font-family="Times,serif" font-size="14.00" fill="#000000">18</text>
</g>
<!-- 9&#45;&gt;18 -->
<g id="edge2" class="edge">
<title>9-&gt;18</title>
<path fill="none" stroke="#000000" d="M93.0843,-144.2022C91.9651,-133.0419 91.972,-118.7143 93.105,-107.593"/>
</g>
<!-- 9&#45;&gt;18 -->
<g id="edge3" class="edge">
<title>9-&gt;18</title>
<path fill="none" stroke="#ff0000" d="M104.9157,-144.2022C106.0349,-133.0419 106.028,-118.7143 104.895,-107.593"/>
</g>
<!-- 22 -->
<g id="node4" class="node">
<title>22</title>
<ellipse fill="none" stroke="#000000" cx="27" cy="-18" rx="27" ry="18"/>
<text text-anchor="middle" x="27" y="-13.8" font-family="Times,serif" font-size="14.00" fill="#000000">22</text>
</g>
<!-- 17&#45;&gt;22 -->
<g id="edge4" class="edge">
<title>17-&gt;22</title>
<path fill="none" stroke="#000000" d="M21.0843,-72.2022C19.9651,-61.0419 19.972,-46.7143 21.105,-35.593"/>
</g>
<!-- 17&#45;&gt;22 -->
<g id="edge5" class="edge">
<title>17-&gt;22</title>
<path fill="none" stroke="#ff0000" d="M32.9157,-72.2022C34.0349,-61.0419 34.028,-46.7143 32.895,-35.593"/>
</g>
<!-- 18&#45;&gt;22 -->
<g id="edge6" class="edge">
<title>18-&gt;22</title>
<path fill="none" stroke="#00ff00" d="M83.7307,-74.7307C71.512,-62.512 54.4602,-45.4602 42.2473,-33.2473"/>
</g>
</g>
</svg>