<?xml version="1.0" encoding="UTF-8" standalone="no"?><!DOCTYPE svg PUBLIC "-//W3C//DTD SVG 1.1//EN" "http://www.w3.org/Graphics/SVG/1.1/DTD/svg11.dtd"><!-- Generated by graphviz version 2.40.1 (20161225.0304)
 --><!-- Title: G Pages: 1 --><svg xmlns="http://www.w3.org/2000/svg" xmlns:xlink="http://www.w3.org/1999/xlink" width="162pt" height="260pt" viewBox="0.00 0.00 162.00 260.00">
<g id="graph0" class="graph" transform="scale(1 1) rotate(0) translate(4 256)">
<title>G</title>
<polygon fill="#ffffff" stroke="transparent" points="-4,4 -4,-256 158,-256 158,4 -4,4"/>
<!-- 11 -->
<g id="node1" class="node">
<title>11</title>
<ellipse fill="none" stroke="#000000" cx="91" cy="-234" rx="27" ry="18"/>
<text text-anchor="middle" x="91" y="-229.8" font-family="Times,serif" font-size="14.00" fill="#000000">11</text>
</g>
<!-- 11&#45;&gt;11 -->
<g id="edge1" class="edge">
<title>11-&gt;11</title>
<path fill="none" stroke="#ff0000" d="M110.895,-246.4321C123.688,-249.6753 136,-245.5313 136,-234 136,-222.4688 123.688,-218.3247 110.895,-221.5679"/>
</g>
<!-- 15 -->
<g id="node2" class="node">
<title>15</title>
<ellipse fill="none" stroke="#000000" cx="91" cy="-162" rx="27" ry="18"/>
<text text-anchor="middle" x="91" y="-157.8" font-family="Times,serif" font-size="14.00" fill="#000000">15</text>
</g>
<!-- 11&#45;&gt;15 -->
<g id="edge2" class="edge">
<title>11-&gt;15</title>
<path fill="none" stroke="#000000" d="M85.0843,-216.2022C83.9651,-205.0419 83.972,-190.7143 85.105,-179.593"/>
</g>
<!-- 11&#45;&gt;15 -->
<g id="edge3" class="edge">
<title>11-&gt;15</title>
<path fill="none" stroke="#00ff00" d="M96.9157,-216.2022C98.0349,-205.0419 98.028,-190.7143 96.895,-179.593"/>
</g>
<!-- 19 -->
<g id="node3" class="node">
<title>19</title>
<ellipse fill="none" stroke="#000000" cx="27" cy="-90" rx="27" ry="18"/>
<text text-anchor="middle" x="27" y="-85.8" font-family="Times,serif" font-size="14.00" fill="#000000">19</text>
</g>
<!-- 11&#45;&gt;19 -->
<g id="edge4" class="edge">
<title>11-&gt;19</title>
<path fill="none" stroke="#000000" d="M72.9681,-220.4462C63.4994,-209.9013 52.9814,-194.6462 46,-180 34.6638,-156.2181 26.5118,-126.7523 24.2613,-108.1581"/>
</g>
<!-- 11&#45;&gt;19 -->
<g id="edge5" class="edge">
<title>11-&gt;19</title>
<path fill="none" stroke="#00ff00" d="M85.2309,-216.2815C78.9251,-206.0971 70.1087,-192.8154 64,-180 52.3822,-155.6272 44.1087,-125.2846 37.285,-106.7926"/>
</g>
<!-- 20 -->
<g id="node4" class="node">
<title>20</title>
<ellipse fill="none" stroke="#000000" cx="109" cy="-18" rx="27" ry="18"/>
<text text-anchor="middle" x="109" y="-13.8" font-family="Times,serif" font-size="14.00" fill="#000000">20</text>
</g>
<!-- 11&#45;&gt;20 -->
<g id="edge6" class="edge">
<title>11-&gt;20</title>
<path fill="none" stroke="#ff0000" d="M110.1088,-221.141C122.6336,-211.483 137.9475,-197.0261 145,-180 165.8382,-129.692 136.2854,-65.3673 119.389,-35.1433"/>
</g>
<!-- 15&#45;&gt;15 -->
<g id="edge7" class="edge">
<title>15-&gt;15</title>
<path fill="none" stroke="#ff0000" d="M110.895,-174.4321C123.688,-177.6753 136,-173.5313 136,-162 136,-150.4688 123.688,-146.3247 110.895,-149.5679"/>
</g>
<!-- 15&#45;&gt;19 -->
<g id="edge8" class="edge">
<title>15-&gt;19</title>
<path fill="none" stroke="#ff0000" d="M77.113,-146.3771C66.378,-134.3003 51.5881,-117.6616 40.8599,-105.5924"/>
</g>
<!-- 15&#45;&gt;20 -->
<g id="edge9" class="edge">
<title>15-&gt;20</title>
<path fill="none" stroke="#000000" d="M88.5995,-144.0535C89.2517,-116.3085 95.882,-63.3275 102.1642,-35.7204"/>
</g>
<!-- 15&#45;&gt;20 -->
<g id="edge10" class="edge">
<title>15-&gt;20</title>
<path fill="none" stroke="#00ff00" d="M97.8214,-144.3428C104.0846,-116.8555 110.6986,-64.1051 111.393,-36.256"/>
</g>
<!-- 19&#45;&gt;19 -->
<g id="edge11" class="edge">
<title>19-&gt;19</title>
<path fill="none" stroke="#ff0000" d="M46.895,-102.4321C59.688,-105.6753 72,-101.5313 72,-90 72,-78.4688 59.688,-74.3247 46.895,-77.5679"/>
</g>
<!-- 19&#45;&gt;20 -->
<g id="edge12" class="edge">
<title>19-&gt;20</title>
<path fill="none" stroke="#000000" d="M39.4784,-74.0209C52.8797,-60.9292 73.8372,-42.6581 89.3901,-30.5878"/>
</g>
<!-- 19&#45;&gt;20 -->
<g id="edge13" class="edge">
<title>19-&gt;20</title>
<path fill="none" stroke="#00ff00" d="M46.5502,-77.4586C62.0274,-65.4521 82.8827,-47.2797 96.3094,-34.1862"/>
</g>
<!-- 20&#45;&gt;20 -->
<g id="edge14" class="edge">
<title>20-&gt;20</title>
<path fill="none" stroke="#ff0000" d="M128.895,-30.4321C141.688,-33.6753 154,-29.5313 154,-18 154,-6.4688 141.688,-2.3247 128.895,-5.5679"/>
</g>
</g>
</svg>