<?xml version="1.0" encoding="UTF-8" standalone="no"?><!DOCTYPE svg PUBLIC "-//W3C//DTD SVG 1.1//EN" "http://www.w3.org/Graphics/SVG/1.1/DTD/svg11.dtd"><!-- Generated by graphviz version 2.40.1 (20161225.0304)
 --><!-- Title: G Pages: 1 --><svg xmlns="http://www.w3.org/2000/svg" xmlns:xlink="http://www.w3.org/1999/xlink" width="426pt" height="260pt" viewBox="0.00 0.00 426.40 260.00">
<g id="graph0" class="graph" transform="scale(1 1) rotate(0) translate(4 256)">
<title>G</title>
<polygon fill="#ffffff" stroke="transparent" points="-4,4 -4,-256 422.3999,-256 422.3999,4 -4,4"/>
<!-- 2 -->
<g id="node1" class="node">
<title>2</title>
<ellipse fill="none" stroke="#000000" cx="73" cy="-234" rx="27" ry="18"/>
<text text-anchor="middle" x="73" y="-229.8" font-family="Times,serif" font-size="14.00" fill="#000000">2</text>
</g>
<!-- 10 -->
<g id="node2" class="node">
<title>10</title>
<ellipse fill="none" stroke="#000000" cx="73" cy="-162" rx="27" ry="18"/>
<text text-anchor="middle" x="73" y="-157.8" font-family="Times,serif" font-size="14.00" fill="#000000">10</text>
</g>
<!-- 2&#45;&gt;10 -->
<g id="edge1" class="edge">
<title>2-&gt;10</title>
<path fill="none" stroke="#000000" d="M73,-215.8314C73,-205 73,-191.2876 73,-180.4133"/>
</g>
<!-- 13 -->
<g id="node3" class="node">
<title>13</title>
<ellipse fill="none" stroke="#000000" cx="27" cy="-90" rx="27" ry="18"/>
<text text-anchor="middle" x="27" y="-85.8" font-family="Times,serif" font-size="14.00" fill="#000000">13</text>
</g>
<!-- 2&#45;&gt;13 -->
<g id="edge2" class="edge">
<title>2-&gt;13</title>
<path fill="none" stroke="#000000" d="M59.4265,-218.1013C51.5027,-207.8948 42.0905,-193.9746 37,-180 28.3368,-156.2177 26.6151,-126.752 26.5302,-108.158"/>
</g>
<!-- 21 -->
<g id="node4" class="node">
<title>21</title>
<ellipse fill="none" stroke="#000000" cx="82" cy="-18" rx="27" ry="18"/>
<text text-anchor="middle" x="82" y="-13.8" font-family="Times,serif" font-size="14.00" fill="#000000">21</text>
</g>
<!-- 2&#45;&gt;21 -->
<g id="edge3" class="edge">
<title>2-&gt;21</title>
<path fill="none" stroke="#000000" d="M87.1229,-218.2844C95.2535,-208.1468 104.6901,-194.2347 109,-180 124.5337,-128.6957 102.691,-65.3769 89.9911,-35.3587"/>
</g>
<!-- 10&#45;&gt;13 -->
<g id="edge12" class="edge">
<title>10-&gt;13</title>
<path fill="none" stroke="#000000" d="M62.3311,-145.3008C54.8996,-133.669 45.0298,-118.2206 37.6111,-106.6087"/>
</g>
<!-- 10&#45;&gt;21 -->
<g id="edge13" class="edge">
<title>10-&gt;21</title>
<path fill="none" stroke="#000000" d="M74.1399,-143.7623C75.871,-116.0633 79.1437,-63.7005 80.8694,-36.0896"/>
</g>
<!-- 13&#45;&gt;21 -->
<g id="edge17" class="edge">
<title>13-&gt;21</title>
<path fill="none" stroke="#000000" d="M39.4804,-73.6621C48.4814,-61.8788 60.5793,-46.0416 69.569,-34.2733"/>
</g>
<!-- 3 -->
<g id="node5" class="node">
<title>3</title>
<ellipse fill="none" stroke="#000000" cx="221" cy="-234" rx="27" ry="18"/>
<text text-anchor="middle" x="221" y="-229.8" font-family="Times,serif" font-size="14.00" fill="#000000">3</text>
</g>
<!-- 11 -->
<g id="node6" class="node">
<title>11</title>
<ellipse fill="none" stroke="#000000" cx="221" cy="-162" rx="27" ry="18"/>
<text text-anchor="middle" x="221" y="-157.8" font-family="Times,serif" font-size="14.00" fill="#000000">11</text>
</g>
<!-- 3&#45;&gt;11 -->
<g id="edge4" class="edge">
<title>3-&gt;11</title>
<path fill="none" stroke="#000000" d="M221,-215.8314C221,-205 221,-191.2876 221,-180.4133"/>
</g>
<!-- 12 -->
<g id="node7" class="node">
<title>12</title>
<ellipse fill="none" stroke="#000000" cx="183" cy="-90" rx="27" ry="18"/>
<text text-anchor="middle" x="183" y="-85.8" font-family="Times,serif" font-size="14.00" fill="#000000">12</text>
</g>
<!-- 3&#45;&gt;12 -->
<g id="edge5" class="edge">
<title>3-&gt;12</title>
<path fill="none" stroke="#000000" d="M206.9882,-218.2501C198.8995,-208.0996 189.4678,-194.186 185,-180 177.4412,-155.9997 178.5989,-126.5902 180.4991,-108.0679"/>
</g>
<!-- 20 -->
<g id="node8" class="node">
<title>20</title>
<ellipse fill="none" stroke="#000000" cx="238" cy="-18" rx="27" ry="18"/>
<text text-anchor="middle" x="238" y="-13.8" font-family="Times,serif" font-size="14.00" fill="#000000">20</text>
</g>
<!-- 3&#45;&gt;20 -->
<g id="edge6" class="edge">
<title>3-&gt;20</title>
<path fill="none" stroke="#000000" d="M235.1229,-218.2844C243.2535,-208.1468 252.6901,-194.2347 257,-180 272.3453,-129.3179 255.134,-66.2385 244.7412,-35.9166"/>
</g>
<!-- 11&#45;&gt;12 -->
<g id="edge14" class="edge">
<title>11-&gt;12</title>
<path fill="none" stroke="#000000" d="M211.9945,-144.937C206.0248,-133.626 198.2149,-118.8282 192.2048,-107.4407"/>
</g>
<!-- 11&#45;&gt;20 -->
<g id="edge15" class="edge">
<title>11-&gt;20</title>
<path fill="none" stroke="#000000" d="M223.1187,-144.0535C226.3763,-116.4592 232.5809,-63.9026 235.8546,-36.1727"/>
</g>
<!-- 12&#45;&gt;20 -->
<g id="edge16" class="edge">
<title>12-&gt;20</title>
<path fill="none" stroke="#000000" d="M195.4804,-73.6621C204.4814,-61.8788 216.5793,-46.0416 225.569,-34.2733"/>
</g>
<!-- 4 -->
<g id="node9" class="node">
<title>4</title>
<ellipse fill="none" stroke="#000000" cx="377" cy="-234" rx="27" ry="18"/>
<text text-anchor="middle" x="377" y="-229.8" font-family="Times,serif" font-size="14.00" fill="#000000">4</text>
</g>
<!-- 8 -->
<g id="node10" class="node">
<title>8</title>
<ellipse fill="none" stroke="#000000" cx="377" cy="-162" rx="27" ry="18"/>
<text text-anchor="middle" x="377" y="-157.8" font-family="Times,serif" font-size="14.00" fill="#000000">8</text>
</g>
<!-- 4&#45;&gt;8 -->
<g id="edge7" class="edge">
<title>4-&gt;8</title>
<path fill="none" stroke="#000000" d="M377,-215.8314C377,-205 377,-191.2876 377,-180.4133"/>
</g>
<!-- 15 -->
<g id="node11" class="node">
<title>15</title>
<ellipse fill="none" stroke="#000000" cx="331" cy="-90" rx="27" ry="18"/>
<text text-anchor="middle" x="331" y="-85.8" font-family="Times,serif" font-size="14.00" fill="#000000">15</text>
</g>
<!-- 4&#45;&gt;15 -->
<g id="edge8" class="edge">
<title>4-&gt;15</title>
<path fill="none" stroke="#000000" d="M363.4265,-218.1013C355.5027,-207.8948 346.0905,-193.9746 341,-180 332.3368,-156.2177 330.6151,-126.752 330.5302,-108.158"/>
</g>
<!-- 19 -->
<g id="node12" class="node">
<title>19</title>
<ellipse fill="none" stroke="#000000" cx="386" cy="-18" rx="27" ry="18"/>
<text text-anchor="middle" x="386" y="-13.8" font-family="Times,serif" font-size="14.00" fill="#000000">19</text>
</g>
<!-- 4&#45;&gt;19 -->
<g id="edge9" class="edge">
<title>4-&gt;19</title>
<path fill="none" stroke="#000000" d="M391.1229,-218.2844C399.2535,-208.1468 408.6901,-194.2347 413,-180 428.5337,-128.6957 406.691,-65.3769 393.9911,-35.3587"/>
</g>
<!-- 8&#45;&gt;15 -->
<g id="edge10" class="edge">
<title>8-&gt;15</title>
<path fill="none" stroke="#000000" d="M366.3311,-145.3008C358.8996,-133.669 349.0298,-118.2206 341.6111,-106.6087"/>
</g>
<!-- 8&#45;&gt;19 -->
<g id="edge11" class="edge">
<title>8-&gt;19</title>
<path fill="none" stroke="#000000" d="M378.1399,-143.7623C379.871,-116.0633 383.1437,-63.7005 384.8694,-36.0896"/>
</g>
<!-- 15&#45;&gt;19 -->
<g id="edge18" class="edge">
<title>15-&gt;19</title>
<path fill="none" stroke="#000000" d="M343.4804,-73.6621C352.4814,-61.8788 364.5793,-46.0416 373.569,-34.2733"/>
</g>
</g>
</svg>