<?xml version="1.0" encoding="UTF-8" standalone="no"?>
<!DOCTYPE svg PUBLIC "-//W3C//DTD SVG 1.1//EN"
 "http://www.w3.org/Graphics/SVG/1.1/DTD/svg11.dtd">
<!-- Generated by graphviz version 2.43.0 (0)
 -->
<!-- Title: G Pages: 1 -->
<svg width="426pt" height="260pt"
 viewBox="0.00 0.00 426.47 260.00" xmlns="http://www.w3.org/2000/svg" xmlns:xlink="http://www.w3.org/1999/xlink">
<g id="graph0" class="graph" transform="scale(1 1) rotate(0) translate(4 256)">
<title>G</title>
<polygon fill="white" stroke="transparent" points="-4,4 -4,-256 422.47,-256 422.47,4 -4,4"/>
<!-- 2 -->
<g id="node1" class="node">
<title>2</title>
<ellipse fill="none" stroke="black" cx="73" cy="-234" rx="27" ry="18"/>
<text text-anchor="middle" x="73" y="-230.3" font-family="Times,serif" font-size="14.00">2</text>
</g>
<!-- 10 -->
<g id="node2" class="node">
<title>10</title>
<ellipse fill="none" stroke="black" cx="73" cy="-162" rx="27" ry="18"/>
<text text-anchor="middle" x="73" y="-158.3" font-family="Times,serif" font-size="14.00">10</text>
</g>
<!-- 2&#45;&gt;10 -->
<g id="edge1" class="edge">
<title>2&#45;&gt;10</title>
<path fill="none" stroke="black" d="M73,-215.7C73,-204.85 73,-190.92 73,-180.1"/>
</g>
<!-- 13 -->
<g id="node3" class="node">
<title>13</title>
<ellipse fill="none" stroke="black" cx="27" cy="-90" rx="27" ry="18"/>
<text text-anchor="middle" x="27" y="-86.3" font-family="Times,serif" font-size="14.00">13</text>
</g>
<!-- 2&#45;&gt;13 -->
<g id="edge2" class="edge">
<title>2&#45;&gt;13</title>
<path fill="none" stroke="black" d="M59.79,-217.89C51.79,-207.85 42.17,-193.98 37,-180 28.21,-156.23 26.56,-126.65 26.52,-108.29"/>
</g>
<!-- 21 -->
<g id="node4" class="node">
<title>21</title>
<ellipse fill="none" stroke="black" cx="82" cy="-18" rx="27" ry="18"/>
<text text-anchor="middle" x="82" y="-14.3" font-family="Times,serif" font-size="14.00">21</text>
</g>
<!-- 2&#45;&gt;21 -->
<g id="edge3" class="edge">
<title>2&#45;&gt;21</title>
<path fill="none" stroke="black" d="M86.75,-218.07C94.96,-208.1 104.62,-194.25 109,-180 124.83,-128.53 102.29,-64.77 89.61,-35.32"/>
</g>
<!-- 10&#45;&gt;13 -->
<g id="edge12" class="edge">
<title>10&#45;&gt;13</title>
<path fill="none" stroke="black" d="M62.56,-145.12C55.03,-133.66 44.92,-118.26 37.4,-106.82"/>
</g>
<!-- 10&#45;&gt;21 -->
<g id="edge13" class="edge">
<title>10&#45;&gt;21</title>
<path fill="none" stroke="black" d="M74.09,-143.87C75.82,-116.58 79.18,-63.52 80.91,-36.19"/>
</g>
<!-- 13&#45;&gt;21 -->
<g id="edge17" class="edge">
<title>13&#45;&gt;21</title>
<path fill="none" stroke="black" d="M38.93,-73.81C48.16,-62.07 60.87,-45.89 70.09,-34.16"/>
</g>
<!-- 3 -->
<g id="node5" class="node">
<title>3</title>
<ellipse fill="none" stroke="black" cx="221" cy="-234" rx="27" ry="18"/>
<text text-anchor="middle" x="221" y="-230.3" font-family="Times,serif" font-size="14.00">3</text>
</g>
<!-- 11 -->
<g id="node6" class="node">
<title>11</title>
<ellipse fill="none" stroke="black" cx="221" cy="-162" rx="27" ry="18"/>
<text text-anchor="middle" x="221" y="-158.3" font-family="Times,serif" font-size="14.00">11</text>
</g>
<!-- 3&#45;&gt;11 -->
<g id="edge4" class="edge">
<title>3&#45;&gt;11</title>
<path fill="none" stroke="black" d="M221,-215.7C221,-204.85 221,-190.92 221,-180.1"/>
</g>
<!-- 12 -->
<g id="node7" class="node">
<title>12</title>
<ellipse fill="none" stroke="black" cx="183" cy="-90" rx="27" ry="18"/>
<text text-anchor="middle" x="183" y="-86.3" font-family="Times,serif" font-size="14.00">12</text>
</g>
<!-- 3&#45;&gt;12 -->
<g id="edge5" class="edge">
<title>3&#45;&gt;12</title>
<path fill="none" stroke="black" d="M207.36,-218.03C199.19,-208.05 189.54,-194.2 185,-180 177.33,-156.01 178.61,-126.48 180.56,-108.2"/>
</g>
<!-- 20 -->
<g id="node8" class="node">
<title>20</title>
<ellipse fill="none" stroke="black" cx="238" cy="-18" rx="27" ry="18"/>
<text text-anchor="middle" x="238" y="-14.3" font-family="Times,serif" font-size="14.00">20</text>
</g>
<!-- 3&#45;&gt;20 -->
<g id="edge6" class="edge">
<title>3&#45;&gt;20</title>
<path fill="none" stroke="black" d="M234.75,-218.07C242.96,-208.1 252.62,-194.25 257,-180 272.64,-129.15 254.83,-65.63 244.44,-35.86"/>
</g>
<!-- 11&#45;&gt;12 -->
<g id="edge14" class="edge">
<title>11&#45;&gt;12</title>
<path fill="none" stroke="black" d="M212.19,-144.76C206.05,-133.46 197.89,-118.44 191.77,-107.15"/>
</g>
<!-- 11&#45;&gt;20 -->
<g id="edge15" class="edge">
<title>11&#45;&gt;20</title>
<path fill="none" stroke="black" d="M223.05,-143.87C226.32,-116.58 232.67,-63.52 235.94,-36.19"/>
</g>
<!-- 12&#45;&gt;20 -->
<g id="edge16" class="edge">
<title>12&#45;&gt;20</title>
<path fill="none" stroke="black" d="M194.93,-73.81C204.16,-62.07 216.87,-45.89 226.09,-34.16"/>
</g>
<!-- 4 -->
<g id="node9" class="node">
<title>4</title>
<ellipse fill="none" stroke="black" cx="377" cy="-234" rx="27" ry="18"/>
<text text-anchor="middle" x="377" y="-230.3" font-family="Times,serif" font-size="14.00">4</text>
</g>
<!-- 8 -->
<g id="node10" class="node">
<title>8</title>
<ellipse fill="none" stroke="black" cx="377" cy="-162" rx="27" ry="18"/>
<text text-anchor="middle" x="377" y="-158.3" font-family="Times,serif" font-size="14.00">8</text>
</g>
<!-- 4&#45;&gt;8 -->
<g id="edge7" class="edge">
<title>4&#45;&gt;8</title>
<path fill="none" stroke="black" d="M377,-215.7C377,-204.85 377,-190.92 377,-180.1"/>
</g>
<!-- 15 -->
<g id="node11" class="node">
<title>15</title>
<ellipse fill="none" stroke="black" cx="331" cy="-90" rx="27" ry="18"/>
<text text-anchor="middle" x="331" y="-86.3" font-family="Times,serif" font-size="14.00">15</text>
</g>
<!-- 4&#45;&gt;15 -->
<g id="edge8" class="edge">
<title>4&#45;&gt;15</title>
<path fill="none" stroke="black" d="M363.79,-217.89C355.79,-207.85 346.17,-193.98 341,-180 332.21,-156.23 330.56,-126.65 330.52,-108.29"/>
</g>
<!-- 19 -->
<g id="node12" class="node">
<title>19</title>
<ellipse fill="none" stroke="black" cx="386" cy="-18" rx="27" ry="18"/>
<text text-anchor="middle" x="386" y="-14.3" font-family="Times,serif" font-size="14.00">19</text>
</g>
<!-- 4&#45;&gt;19 -->
<g id="edge9" class="edge">
<title>4&#45;&gt;19</title>
<path fill="none" stroke="black" d="M390.75,-218.07C398.96,-208.1 408.62,-194.25 413,-180 428.83,-128.53 406.29,-64.77 393.61,-35.32"/>
</g>
<!-- 8&#45;&gt;15 -->
<g id="edge10" class="edge">
<title>8&#45;&gt;15</title>
<path fill="none" stroke="black" d="M366.56,-145.12C359.03,-133.66 348.92,-118.26 341.4,-106.82"/>
</g>
<!-- 8&#45;&gt;19 -->
<g id="edge11" class="edge">
<title>8&#45;&gt;19</title>
<path fill="none" stroke="black" d="M378.09,-143.87C379.82,-116.58 383.18,-63.52 384.91,-36.19"/>
</g>
<!-- 15&#45;&gt;19 -->
<g id="edge18" class="edge">
<title>15&#45;&gt;19</title>
<path fill="none" stroke="black" d="M342.93,-73.81C352.16,-62.07 364.87,-45.89 374.09,-34.16"/>
</g>
</g>
</svg>
