<?xml version="1.0" encoding="UTF-8" standalone="no"?><!DOCTYPE svg PUBLIC "-//W3C//DTD SVG 1.1//EN" "http://www.w3.org/Graphics/SVG/1.1/DTD/svg11.dtd"><!-- Generated by graphviz version 2.40.1 (20161225.0304)
 --><!-- Title: G Pages: 1 --><svg xmlns="http://www.w3.org/2000/svg" xmlns:xlink="http://www.w3.org/1999/xlink" width="386pt" height="404pt" viewBox="0.00 0.00 386.00 404.00">
<g id="graph0" class="graph" transform="scale(1 1) rotate(0) translate(4 400)">
<title>G</title>
<polygon fill="#ffffff" stroke="transparent" points="-4,4 -4,-400 382,-400 382,4 -4,4"/>
<!-- 3 -->
<g id="node1" class="node">
<title>3</title>
<ellipse fill="none" stroke="#000000" cx="237" cy="-378" rx="27" ry="18"/>
<text text-anchor="middle" x="237" y="-373.8" font-family="Times,serif" font-size="14.00" fill="#000000">3</text>
</g>
<!-- 3&#45;&gt;3 -->
<g id="edge1" class="edge">
<title>3-&gt;3</title>
<path fill="none" stroke="#ff0000" d="M256.895,-390.4321C269.688,-393.6753 282,-389.5313 282,-378 282,-366.4688 269.688,-362.3247 256.895,-365.5679"/>
</g>
<!-- 4 -->
<g id="node2" class="node">
<title>4</title>
<ellipse fill="none" stroke="#000000" cx="269" cy="-306" rx="27" ry="18"/>
<text text-anchor="middle" x="269" y="-301.8" font-family="Times,serif" font-size="14.00" fill="#000000">4</text>
</g>
<!-- 3&#45;&gt;4 -->
<g id="edge2" class="edge">
<title>3-&gt;4</title>
<path fill="none" stroke="#000000" d="M239.1226,-359.8314C243.17,-348.1668 249.9177,-333.1609 256.1906,-321.9568"/>
</g>
<!-- 3&#45;&gt;4 -->
<g id="edge3" class="edge">
<title>3-&gt;4</title>
<path fill="none" stroke="#00ff00" d="M249.8219,-362.0209C256.1288,-350.7521 262.9133,-335.6458 266.9498,-323.9597"/>
</g>
<!-- 8 -->
<g id="node3" class="node">
<title>8</title>
<ellipse fill="none" stroke="#000000" cx="205" cy="-234" rx="27" ry="18"/>
<text text-anchor="middle" x="205" y="-229.8" font-family="Times,serif" font-size="14.00" fill="#000000">8</text>
</g>
<!-- 3&#45;&gt;8 -->
<g id="edge4" class="edge">
<title>3-&gt;8</title>
<path fill="none" stroke="#000000" d="M228.5556,-360.6302C219.6175,-333.252 207.8192,-280.3078 204.3921,-252.3394"/>
</g>
<!-- 3&#45;&gt;8 -->
<g id="edge5" class="edge">
<title>3-&gt;8</title>
<path fill="none" stroke="#00ff00" d="M237.6203,-359.7623C234.2021,-331.7605 222.3425,-278.553 213.3867,-251.1933"/>
</g>
<!-- 11 -->
<g id="node4" class="node">
<title>11</title>
<ellipse fill="none" stroke="#000000" cx="77" cy="-234" rx="27" ry="18"/>
<text text-anchor="middle" x="77" y="-229.8" font-family="Times,serif" font-size="14.00" fill="#000000">11</text>
</g>
<!-- 3&#45;&gt;11 -->
<g id="edge6" class="edge">
<title>3-&gt;11</title>
<path fill="none" stroke="#0000ff" d="M220.7778,-363.4001C190.1115,-335.8003 123.9646,-276.2681 93.2651,-248.6386"/>
</g>
<!-- 12 -->
<g id="node5" class="node">
<title>12</title>
<ellipse fill="none" stroke="#000000" cx="333" cy="-162" rx="27" ry="18"/>
<text text-anchor="middle" x="333" y="-157.8" font-family="Times,serif" font-size="14.00" fill="#000000">12</text>
</g>
<!-- 3&#45;&gt;12 -->
<g id="edge7" class="edge">
<title>3-&gt;12</title>
<path fill="none" stroke="#ff0000" d="M259.4631,-367.491C277.5575,-358.9762 301.5776,-344.9187 314,-324 341.1931,-278.2082 333.6845,-211.7313 331.5132,-180.0713"/>
</g>
<!-- 3&#45;&gt;12 -->
<g id="edge8" class="edge">
<title>3-&gt;12</title>
<path fill="none" stroke="#0000ff" d="M262.8346,-371.8622C285.7143,-364.2143 317.1471,-349.0115 332,-324 359.4809,-277.7236 351.5217,-210.322 341.9704,-179.078"/>
</g>
<!-- 20 -->
<g id="node6" class="node">
<title>20</title>
<ellipse fill="none" stroke="#000000" cx="155" cy="-18" rx="27" ry="18"/>
<text text-anchor="middle" x="155" y="-13.8" font-family="Times,serif" font-size="14.00" fill="#000000">20</text>
</g>
<!-- 3&#45;&gt;20 -->
<g id="edge9" class="edge">
<title>3-&gt;20</title>
<path fill="none" stroke="#0000ff" d="M210.2738,-374.5353C148.2923,-364.8513 0,-331.4944 0,-234 0,-234 0,-234 0,-162 0,-91.11 88.0981,-45.2629 131.4588,-26.9908"/>
</g>
<!-- 4&#45;&gt;4 -->
<g id="edge10" class="edge">
<title>4-&gt;4</title>
<path fill="none" stroke="#ff0000" d="M288.895,-318.4321C301.688,-321.6753 314,-317.5313 314,-306 314,-294.4688 301.688,-290.3247 288.895,-293.5679"/>
</g>
<!-- 4&#45;&gt;8 -->
<g id="edge11" class="edge">
<title>4-&gt;8</title>
<path fill="none" stroke="#ff0000" d="M251.2021,-292.1177C239.2327,-280.4306 224.2007,-263.6659 214.3898,-251.1429"/>
</g>
<!-- 4&#45;&gt;8 -->
<g id="edge12" class="edge">
<title>4-&gt;8</title>
<path fill="none" stroke="#0000ff" d="M259.6728,-288.937C249.9072,-276.4616 234.9275,-259.7447 222.9591,-248.0399"/>
</g>
<!-- 4&#45;&gt;12 -->
<g id="edge13" class="edge">
<title>4-&gt;12</title>
<path fill="none" stroke="#000000" d="M272.3324,-288.0535C282.0028,-259.8561 306.1742,-205.5931 321.2353,-178.3905"/>
</g>
<!-- 4&#45;&gt;12 -->
<g id="edge14" class="edge">
<title>4-&gt;12</title>
<path fill="none" stroke="#00ff00" d="M280.6806,-289.7613C295.6889,-262.6934 319.8288,-208.5339 329.577,-180.2103"/>
</g>
<!-- 15 -->
<g id="node7" class="node">
<title>15</title>
<ellipse fill="none" stroke="#000000" cx="243" cy="-162" rx="27" ry="18"/>
<text text-anchor="middle" x="243" y="-157.8" font-family="Times,serif" font-size="14.00" fill="#000000">15</text>
</g>
<!-- 4&#45;&gt;15 -->
<g id="edge15" class="edge">
<title>4-&gt;15</title>
<path fill="none" stroke="#0000ff" d="M267.9375,-287.925C266.6423,-269.648 263.9814,-240.6557 259,-216 256.5214,-203.7322 252.5214,-190.2322 249.1411,-179.7992"/>
</g>
<!-- 19 -->
<g id="node8" class="node">
<title>19</title>
<ellipse fill="none" stroke="#000000" cx="155" cy="-90" rx="27" ry="18"/>
<text text-anchor="middle" x="155" y="-85.8" font-family="Times,serif" font-size="14.00" fill="#000000">19</text>
</g>
<!-- 4&#45;&gt;19 -->
<g id="edge16" class="edge">
<title>4-&gt;19</title>
<path fill="none" stroke="#0000ff" d="M243.3288,-299.6368C219.7601,-292.3386 186.0004,-277.8953 169,-252 139.6414,-207.2804 146.076,-139.9994 151.4001,-108.0624"/>
</g>
<!-- 8&#45;&gt;8 -->
<g id="edge17" class="edge">
<title>8-&gt;8</title>
<path fill="none" stroke="#ff0000" d="M224.895,-246.4321C237.688,-249.6753 250,-245.5313 250,-234 250,-222.4688 237.688,-218.3247 224.895,-221.5679"/>
</g>
<!-- 8&#45;&gt;12 -->
<g id="edge18" class="edge">
<title>8-&gt;12</title>
<path fill="none" stroke="#000000" d="M223.388,-220.6261C246.4234,-206.5551 285.4044,-184.7285 310.2724,-172.0545"/>
</g>
<!-- 8&#45;&gt;12 -->
<g id="edge19" class="edge">
<title>8-&gt;12</title>
<path fill="none" stroke="#00ff00" d="M227.6428,-223.9887C252.5193,-211.3148 291.5893,-189.4392 314.6465,-175.3529"/>
</g>
<!-- 8&#45;&gt;15 -->
<g id="edge20" class="edge">
<title>8-&gt;15</title>
<path fill="none" stroke="#0000ff" d="M214.0055,-216.937C219.9752,-205.626 227.7851,-190.8282 233.7952,-179.4407"/>
</g>
<!-- 8&#45;&gt;19 -->
<g id="edge21" class="edge">
<title>8-&gt;19</title>
<path fill="none" stroke="#0000ff" d="M198.869,-216.3428C189.2727,-188.7053 170.8083,-135.5278 161.1811,-107.8017"/>
</g>
<!-- 11&#45;&gt;11 -->
<g id="edge22" class="edge">
<title>11-&gt;11</title>
<path fill="none" stroke="#ff0000" d="M96.895,-246.4321C109.688,-249.6753 122,-245.5313 122,-234 122,-222.4688 109.688,-218.3247 96.895,-221.5679"/>
</g>
<!-- 11&#45;&gt;12 -->
<g id="edge23" class="edge">
<title>11-&gt;12</title>
<path fill="none" stroke="#0000ff" d="M102.7744,-228.4321C152.7579,-217.5098 261.1007,-193.1927 297,-180 301.9847,-178.1682 307.1826,-175.8375 312.0278,-173.4658"/>
</g>
<!-- 11&#45;&gt;20 -->
<g id="edge28" class="edge">
<title>11-&gt;20</title>
<path fill="none" stroke="#ff0000" d="M74.1792,-215.8458C75.6243,-185.1738 87.8037,-121.5919 110,-72 116.6283,-57.1907 127.1904,-41.9559 136.7653,-31.4601"/>
</g>
<!-- 11&#45;&gt;20 -->
<g id="edge29" class="edge">
<title>11-&gt;20</title>
<path fill="none" stroke="#0000ff" d="M85.028,-216.335C93.4943,-185.8542 105.6851,-121.8571 128,-72 133.7998,-59.0419 142.6114,-45.758 148.9919,-35.6081"/>
</g>
<!-- 11&#45;&gt;15 -->
<g id="edge24" class="edge">
<title>11-&gt;15</title>
<path fill="none" stroke="#000000" d="M98.2144,-222.5914C129.287,-208.0786 186.4809,-183.3523 219.0319,-170.4306"/>
</g>
<!-- 11&#45;&gt;15 -->
<g id="edge25" class="edge">
<title>11-&gt;15</title>
<path fill="none" stroke="#00ff00" d="M100.8915,-225.5998C133.4192,-212.6906 190.6527,-187.9483 221.7563,-173.4223"/>
</g>
<!-- 11&#45;&gt;19 -->
<g id="edge26" class="edge">
<title>11-&gt;19</title>
<path fill="none" stroke="#000000" d="M82.0772,-216.0535C94.5553,-187.7053 124.2514,-133.012 141.9249,-105.9564"/>
</g>
<!-- 11&#45;&gt;19 -->
<g id="edge27" class="edge">
<title>11-&gt;19</title>
<path fill="none" stroke="#00ff00" d="M90.078,-218.0393C107.7758,-190.9453 137.5261,-136.1444 149.9736,-107.831"/>
</g>
<!-- 12&#45;&gt;12 -->
<g id="edge30" class="edge">
<title>12-&gt;12</title>
<path fill="none" stroke="#ff0000" d="M352.895,-174.4321C365.688,-177.6753 378,-173.5313 378,-162 378,-150.4688 365.688,-146.3247 352.895,-149.5679"/>
</g>
<!-- 12&#45;&gt;20 -->
<g id="edge31" class="edge">
<title>12-&gt;20</title>
<path fill="none" stroke="#0000ff" d="M318.7217,-146.3585C301.1663,-127.5739 269.9986,-95.644 240,-72 219.2664,-55.6584 193.4191,-39.8073 175.7043,-29.5536"/>
</g>
<!-- 20&#45;&gt;20 -->
<g id="edge40" class="edge">
<title>20-&gt;20</title>
<path fill="none" stroke="#ff0000" d="M174.895,-30.4321C187.688,-33.6753 200,-29.5313 200,-18 200,-6.4688 187.688,-2.3247 174.895,-5.5679"/>
</g>
<!-- 15&#45;&gt;20 -->
<g id="edge35" class="edge">
<title>15-&gt;20</title>
<path fill="none" stroke="#000000" d="M232.3781,-145.0873C224.8704,-126.2207 215.0392,-95.2936 200,-72 190.795,-57.7428 177.295,-44.2428 167.2213,-34.3071"/>
</g>
<!-- 15&#45;&gt;20 -->
<g id="edge36" class="edge">
<title>15-&gt;20</title>
<path fill="none" stroke="#00ff00" d="M245.3224,-144.0527C242.5134,-125.1053 232.7674,-94.8726 218,-72 207.141,-55.1809 190.3048,-39.4157 176.4737,-29.3127"/>
</g>
<!-- 15&#45;&gt;15 -->
<g id="edge32" class="edge">
<title>15-&gt;15</title>
<path fill="none" stroke="#ff0000" d="M262.895,-174.4321C275.688,-177.6753 288,-173.5313 288,-162 288,-150.4688 275.688,-146.3247 262.895,-149.5679"/>
</g>
<!-- 15&#45;&gt;19 -->
<g id="edge33" class="edge">
<title>15-&gt;19</title>
<path fill="none" stroke="#ff0000" d="M222.855,-149.7862C206.1782,-137.6697 183.2552,-119.0463 168.6203,-105.8077"/>
</g>
<!-- 15&#45;&gt;19 -->
<g id="edge34" class="edge">
<title>15-&gt;19</title>
<path fill="none" stroke="#0000ff" d="M229.5837,-146.3771C214.9749,-133.1422 191.951,-114.4286 175.2011,-102.2546"/>
</g>
<!-- 19&#45;&gt;20 -->
<g id="edge38" class="edge">
<title>19-&gt;20</title>
<path fill="none" stroke="#000000" d="M149.0843,-72.2022C147.9651,-61.0419 147.972,-46.7143 149.105,-35.593"/>
</g>
<!-- 19&#45;&gt;20 -->
<g id="edge39" class="edge">
<title>19-&gt;20</title>
<path fill="none" stroke="#00ff00" d="M160.9157,-72.2022C162.0349,-61.0419 162.028,-46.7143 160.895,-35.593"/>
</g>
<!-- 19&#45;&gt;19 -->
<g id="edge37" class="edge">
<title>19-&gt;19</title>
<path fill="none" stroke="#ff0000" d="M174.895,-102.4321C187.688,-105.6753 200,-101.5313 200,-90 200,-78.4688 187.688,-74.3247 174.895,-77.5679"/>
</g>
</g>
</svg>